<svg version="1.1" viewBox="0.0 0.0 960.0 720.0" fill="none" stroke="none" stroke-linecap="square" stroke-miterlimit="10" xmlns:xlink="http://www.w3.org/1999/xlink" xmlns="http://www.w3.org/2000/svg"><clipPath id="p.0"><path d="m0 0l960.0 0l0 720.0l-960.0 0l0 -720.0z" clip-rule="nonzero"/></clipPath><g clip-path="url(#p.0)"><path fill="#000000" fill-opacity="0.0" d="m0 0l960.0 0l0 720.0l-960.0 0z" fill-rule="evenodd"/><path fill="#000000" fill-opacity="0.0" d="m15.225721 90.272964l923.3701 0l0 247.96849l-923.3701 0z" fill-rule="evenodd"/><path fill="#000000" d="m189.35402 231.59035q1.671875 0 2.625 1.546875q0.96875 1.53125 0.96875 4.21875q0 4.984375 -2.4375 7.9375q-6.140625 7.421875 -12.421875 11.45314q-6.265625 4.03125 -14.84375 4.03125q-9.46875 0 -15.484375 -5.5625153q-6.015625 -5.578125 -11.265625 -17.34375q-3.84375 -8.453125 -6.34375 -12.609375q-2.484375 -4.171875 -4.921875 -5.890625q-2.4375 -1.734375 -6.140625 -2.109375l-1.40625 9.46875q-2.6875 18.296875 -10.4375 26.375q-7.734375 8.062515 -21.3125 8.062515q-8.828125 0 -15.6875 -4.28125q-6.84375 -4.2968903 -9.53125 -10.95314q-0.890625 -2.3125 -0.890625 -5.0q0 -3.84375 1.78125 -6.65625q1.796875 -2.8125 4.625 -2.8125q1.65625 0 2.8125 0.828125q1.15625 0.828125 2.171875 2.890625q3.96875 7.421875 6.96875 10.375q3.015625 2.9375 7.5 2.9375q5.109375 0 8.75 -4.671875q3.65625 -4.671875 5.203125 -14.40625l1.78125 -12.15625l-2.046875 0q-2.9375 0 -4.609375 -1.65625q-1.65625 -1.671875 -1.65625 -4.625q0 -3.328125 1.71875 -5.3125q1.734375 -1.984375 4.296875 -1.984375l4.21875 0q0.90625 -6.265625 1.28125 -8.703125l3.96875 -28.796875q-3.328125 -0.390625 -6.265625 -0.390625q-10.890625 0 -16.515625 3.78125q-5.625 3.78125 -5.625 10.8125q0 3.203125 0.703125 5.1875q0.703125 1.984375 1.84375 4.421875q0.515625 1.015625 0.515625 2.296875q0 2.8125 -2.625 4.9375q-2.625 2.109375 -5.828125 2.109375q-4.09375 0 -6.015625 -3.59375q-3.828125 -6.78125 -3.828125 -14.578125q0 -8.078125 4.40625 -14.734375q4.421875 -6.65625 13.375 -10.6875q8.96875 -4.03125 22.15625 -4.03125q5.75 0 10.546875 0.640625q4.8125 0.640625 10.5625 2.4375q6.28125 1.921875 6.28125 7.171875q0 7.03125 -6.015625 7.03125l-5.0 34.4375q14.984375 -1.53125 24.390625 -12.859375q9.40625 -11.328125 15.671875 -30.796875q1.15625 -3.578125 3.90625 -5.5q2.75 -1.921875 6.984375 -1.921875q3.578125 0 5.5625 1.609375q1.984375 1.59375 1.984375 4.546875q0 0.890625 -0.515625 2.9375q-6.390625 21.125 -18.296875 33.546875q-11.90625 12.40625 -25.984375 16.5q4.859375 1.15625 7.984375 3.46875q3.140625 2.296875 5.3125 5.6875q2.1875 3.390625 5.0 9.40625q3.96875 8.453125 7.421875 11.96875q3.453125 3.515625 8.0625 3.515625q4.109375 0 7.8125 -2.75q3.71875 -2.75 9.34375 -9.40625q1.53125 -1.796875 3.453125 -1.796875zm6.4072723 29.187515q-7.9375 0 -12.671875 -5.7500153q-4.734375 -5.765625 -4.734375 -15.109375q0 -10.25 4.734375 -19.390625q4.734375 -9.15625 12.609375 -14.71875q7.875 -5.578125 16.703125 -5.578125q2.8125 0 3.765625 1.09375q0.96875 1.078125 1.609375 3.90625q2.6875 -0.515625 5.625 -0.515625q6.28125 0 6.28125 4.484375q0 2.6875 -1.921875 12.796875q-2.953125 14.71875 -2.953125 20.484375q0 1.90625 0.953125 3.0625q0.96875 1.15625 2.515625 1.15625q2.421875 0 5.875 -3.140625q3.46875 -3.140625 9.34375 -10.171875q1.546875 -1.796875 3.46875 -1.796875q1.65625 0 2.609375 1.546875q0.96875 1.53125 0.96875 4.21875q0 5.125 -2.4375 7.9375q-5.25 6.53125 -11.140625 11.01564q-5.875 4.46875 -11.375 4.46875q-4.234375 0 -7.75 -2.875q-3.515625 -2.8906403 -5.3125 -7.8750153q-6.65625 10.750015 -16.765625 10.750015zm4.609375 -12.92189q2.8125 0 5.375 -3.328125q2.5625 -3.328125 3.703125 -8.84375l4.734375 -23.546875q-5.375 0.125 -9.921875 4.03125q-4.53125 3.90625 -7.21875 10.3125q-2.6875 6.390625 -2.6875 13.5625q0 3.96875 1.59375 5.890625q1.609375 1.921875 4.421875 1.921875zm101.1156 -16.265625q1.671875 0 2.625 1.546875q0.953125 1.53125 0.953125 4.21875q0 4.734375 -2.421875 7.9375q-6.015625 7.796875 -14.921875 12.281265q-8.890625 4.484375 -20.03122 4.484375q-8.703125 0 -15.109375 -2.625q-6.390625 -2.625 -9.78125 -7.1718903q-3.390625 -4.546875 -3.390625 -10.171875q0 -8.453125 6.78125 -14.96875q6.78125 -6.53125 19.453125 -12.546875l-20.984375 0.5q-2.8125 0.140625 -4.296875 -1.96875q-1.46875 -2.125 -1.46875 -5.0625q0 -3.078125 1.46875 -5.4375q1.484375 -2.375 4.03125 -2.375q5.890625 0 15.75 0.890625q2.046875 0.140625 7.484375 0.53125q5.4374695 0.375 9.1562195 0.375q1.28125 0 4.859375 -1.03125q0.640625 -0.125 2.5 -0.625q1.859375 -0.515625 3.140625 -0.515625q2.046875 0 3.390625 1.796875q1.34375 1.78125 1.34375 5.5q0 4.09375 -1.921875 6.40625q-1.921875 2.296875 -6.015625 4.078125q-11.65625 5.0 -19.34372 10.703125q-7.671875 5.6875 -7.671875 11.3125q0 3.59375 3.328125 5.90625q3.328125 2.296875 9.859375 2.296875q7.1718445 0 14.5312195 -3.578125q7.359375 -3.59375 13.25 -10.890625q1.53125 -1.796875 3.453125 -1.796875zm8.835022 29.187515q-8.328125 0 -12.109375 -5.8906403q-3.765625 -5.890625 -3.765625 -15.609375q0 -5.765625 1.46875 -14.78125q1.46875 -9.03125 3.78125 -16.84375q1.15625 -4.09375 3.0625 -5.625q1.921875 -1.53125 6.15625 -1.53125q6.53125 0 6.53125 4.34375q0 3.203125 -2.4375 14.84375q-3.078125 14.078125 -3.078125 19.078125q0 3.84375 1.015625 5.890625q1.03125 2.046875 3.46875 2.046875q2.296875 0 5.75 -3.203125q3.46875 -3.203125 9.21875 -10.109375q1.546875 -1.796875 3.46875 -1.796875q1.65625 0 2.609375 1.546875q0.96875 1.53125 0.96875 4.21875q0 5.125 -2.4375 7.9375q-12.671875 15.48439 -23.671875 15.48439zm24.831757 0q-4.859375 0 -6.84375 -5.1093903q-1.984375 -5.125 -1.984375 -16.390625q0 -16.640625 4.734375 -31.625q1.140625 -3.703125 3.765625 -5.421875q2.625 -1.734375 7.359375 -1.734375q2.5625 0 3.578125 0.640625q1.03125 0.625 1.03125 2.421875q0 2.046875 -1.921875 9.21875q-1.265625 5.125 -2.046875 8.90625q-0.765625 3.765625 -1.28125 9.390625q3.46875 -9.984375 8.265625 -16.890625q4.796875 -6.90625 9.84375 -10.296875q5.0625 -3.390625 9.546875 -3.390625q4.484375 0 6.328125 2.046875q1.859375 2.046875 1.859375 6.265625q0 4.09375 -2.421875 14.84375q-1.03125 4.609375 -1.421875 6.921875q4.234375 -10.75 9.40625 -17.53125q5.1875 -6.796875 10.171875 -9.671875q5.0 -2.875 9.234375 -2.875q4.09375 0 6.203125 2.109375q2.109375 2.109375 2.109375 6.203125q0 3.328125 -1.40625 12.546875q-1.28125 7.8125 -2.046875 14.78125q-0.765625 6.96875 -0.765625 15.546875q0 4.8750153 -1.984375 6.9843903q-1.984375 2.109375 -6.46875 2.109375q-4.21875 0 -6.140625 -2.171875q-1.921875 -2.1875 -1.921875 -6.5312653q0 -5.125 1.796875 -16.890625q1.53125 -10.25 1.53125 -13.0625q0 -2.046875 -1.40625 -2.046875q-1.671875 0 -4.75 4.296875q-3.0625 4.28125 -6.140625 11.328125q-3.0625 7.03125 -4.984375 14.84375q-1.40625 6.1406403 -3.265625 8.187515q-1.859375 2.046875 -5.953125 2.046875q-4.21875 0 -6.328125 -4.03125q-2.109375 -4.0312653 -2.109375 -9.79689q0 -4.859375 1.28125 -14.078125q1.015625 -8.1875 1.015625 -10.75q0 -2.046875 -1.40625 -2.046875q-1.921875 0 -4.875 4.609375q-2.9375 4.609375 -5.6875 11.78125q-2.75 7.15625 -4.421875 14.078125q-1.40625 6.0156403 -3.265625 8.125015q-1.84375 2.109375 -5.8125 2.109375zm150.78787 0q-8.84375 0 -15.953125 -4.34375q-7.09375 -4.3593903 -11.1875 -12.60939q-4.09375 -8.265625 -4.09375 -19.53125q0 -19.453125 8.3125 -36.03125q8.328125 -16.578125 24.578125 -26.625q16.25 -10.046875 39.046875 -10.046875q5.875 0 12.59375 0.90625q6.734375 0.890625 12.234375 2.6875q3.578125 1.015625 3.578125 5.109375q0 3.328125 -2.5 6.28125q-2.484375 2.9375 -5.8125 2.9375q-1.03125 0 -1.546875 -0.125q-6.640625 -1.53125 -11.390625 -2.234375q-4.734375 -0.71875 -9.984375 -0.71875q-16.25 0 -27.640625 7.875q-11.390625 7.875 -17.03125 20.8125q-5.625 12.921875 -5.625 27.890625q0 10.890625 4.28125 16.84375q4.296875 5.9375 11.203125 5.9375q7.8125 0 13.703125 -6.390625q5.890625 -6.40625 10.75 -20.734375q4.859375 -14.34375 9.59375 -38.921875q0.765625 -3.578125 3.0625 -4.859375q2.3125 -1.28125 6.15625 -1.28125q9.09375 0 9.09375 5.890625q0 1.03125 -0.390625 2.5625q-3.328125 12.421875 -6.078125 27.46875q-2.75 15.03125 -2.75 22.828125q0 6.921875 2.046875 10.0625q2.046875 3.125 6.265625 3.125q4.109375 0 7.8125 -2.75q3.71875 -2.75 9.34375 -9.40625q1.53125 -1.796875 3.453125 -1.796875q1.671875 0 2.625 1.546875q0.96875 1.53125 0.96875 4.21875q0 4.984375 -2.4375 7.9375q-6.265625 7.546875 -12.28125 11.51564q-6.015625 3.96875 -14.71875 3.96875q-8.96875 0 -14.46875 -5.1875153q-5.5 -5.1875 -6.921875 -14.65625q-9.46875 19.843765 -27.890625 19.843765zm142.32678 -29.187515q1.671875 0 2.625 1.546875q0.96875 1.53125 0.96875 4.21875q0 5.125 -2.4375 7.9375q-5.765625 7.03125 -11.65625 11.26564q-5.875 4.21875 -13.9375 4.21875q-9.859375 0 -15.875 -5.6250153q-6.015625 -5.640625 -6.015625 -14.984375q0 -4.984375 5.109375 -7.171875q5.640625 -2.421875 8.0625 -5.171875q2.4375 -2.765625 2.4375 -6.734375q0 -2.296875 -0.96875 -3.4375q-0.953125 -1.15625 -2.359375 -1.15625q-3.453125 0 -7.625 5.0q-4.15625 4.984375 -7.734375 12.859375q-3.578125 7.859375 -5.625 16.1875q-1.40625 6.0156403 -3.265625 8.125015q-1.859375 2.109375 -5.828125 2.109375q-3.96875 0 -5.828125 -2.875q-1.859375 -2.8906403 -2.5 -8.906265q-0.625 -6.015625 -0.625 -17.65625q0 -19.71875 4.03125 -41.09375q4.03125 -21.375 11.890625 -35.890625q7.875 -14.53125 18.890625 -14.53125q5.890625 0 9.53125 5.0625q3.65625 5.046875 3.65625 13.109375q0 12.921875 -7.5625 26.8125q-7.546875 13.890625 -24.578125 32.453125q-0.375 6.65625 -0.375 13.6875q6.140625 -16.0 14.078125 -23.21875q7.9375 -7.234375 14.84375 -7.234375q6.40625 0 10.296875 4.359375q3.90625 4.34375 3.90625 10.734375q0 7.046875 -3.578125 12.9375q-3.578125 5.875 -12.28125 10.484375q0.5 3.46875 3.125 5.578125q2.625 2.109375 6.34375 2.109375q3.96875 0 7.671875 -3.0625q3.71875 -3.078125 9.734375 -10.25q1.53125 -1.796875 3.453125 -1.796875zm-40.953125 -79.09375q-2.3125 0 -5.125 6.59375q-2.8125 6.578125 -5.4375 17.78125q-2.625 11.203125 -4.296875 24.390625q7.9375 -9.34375 13.125 -20.34375q5.1875 -11.015625 5.1875 -19.984375q0 -4.09375 -0.90625 -6.265625q-0.890625 -2.171875 -2.546875 -2.171875zm99.71564 79.359375q1.65625 0 2.609375 1.59375q0.96875 1.59375 0.96875 4.03125q0 2.9375 -0.90625 4.609375q-0.890625 1.65625 -2.8125 2.9375l-24.578125 16.51564q-4.859375 26.5 -12.734375 41.65625q-7.859375 15.171875 -20.03125 15.171875q-6.515625 0 -10.625 -4.03125q-4.09375 -4.03125 -4.09375 -10.5625q0 -6.015625 2.75 -12.28125q2.75 -6.265625 10.234375 -14.40625q7.5 -8.125 21.1875 -18.609375l0.390625 -2.9531403q0.890625 -4.734375 2.046875 -13.5625q-2.5625 9.21875 -7.171875 14.015625q-4.609375 4.7968903 -9.71875 4.7968903q-5.765625 0 -9.421875 -5.3125153q-3.640625 -5.3125 -3.640625 -13.25q0 -9.59375 1.28125 -17.59375q1.28125 -8.0 4.21875 -16.96875q1.28125 -3.828125 3.578125 -5.484375q2.3125 -1.671875 7.3125 -1.671875q2.8125 0 3.890625 0.890625q1.09375 0.890625 1.09375 2.6875q0 1.015625 -1.40625 6.90625q-1.28125 4.734375 -2.046875 8.578125q-1.015625 5.25 -1.796875 10.046875q-0.765625 4.796875 -0.765625 7.875q0 4.859375 2.6875 4.859375q1.921875 0 4.796875 -3.828125q2.890625 -3.84375 6.15625 -11.65625q3.265625 -7.8125 6.328125 -19.203125q1.03125 -3.828125 3.140625 -5.484375q2.109375 -1.671875 6.328125 -1.671875q2.953125 0 4.09375 0.765625q1.15625 0.765625 1.15625 2.5625q0 3.1875 -3.328125 22.015625l-3.328125 20.59375q9.859375 -7.421875 19.203125 -13.5625q1.671875 -1.015625 2.953125 -1.015625zm-56.078125 74.10939q3.203125 0 7.171875 -7.4375q3.96875 -7.421875 7.9375 -24.6875q-9.859375 8.3125 -14.28125 15.15625q-4.40625 6.859375 -4.40625 11.96875q0 2.1875 0.828125 3.59375q0.84375 1.40625 2.75 1.40625zm66.18524 -45.1875q-8.328125 0 -12.109375 -5.8906403q-3.765625 -5.890625 -3.765625 -15.609375q0 -5.765625 1.46875 -14.78125q1.46875 -9.03125 3.78125 -16.84375q1.15625 -4.09375 3.0625 -5.625q1.921875 -1.53125 6.15625 -1.53125q6.53125 0 6.53125 4.34375q0 3.203125 -2.4375 14.84375q-3.078125 14.078125 -3.078125 19.078125q0 3.84375 1.015625 5.890625q1.03125 2.046875 3.46875 2.046875q2.296875 0 5.75 -3.203125q3.46875 -3.203125 9.21875 -10.109375q1.546875 -1.796875 3.46875 -1.796875q1.65625 0 2.609375 1.546875q0.96875 1.53125 0.96875 4.21875q0 5.125 -2.4375 7.9375q-12.671875 15.48439 -23.671875 15.48439zm64.25366 -29.187515q1.65625 0 2.609375 1.546875q0.96875 1.53125 0.96875 4.21875q0 5.125 -2.421875 7.9375q-5.515625 6.78125 -11.984375 11.14064q-6.453125 4.34375 -14.640625 4.34375q-11.265625 0 -16.703125 -10.23439q-5.4375 -10.25 -5.4375 -26.5q0 -15.625 4.03125 -35.578125q4.03125 -19.96875 11.890625 -34.296875q7.875 -14.34375 18.765625 -14.34375q6.140625 0 9.65625 5.703125q3.515625 5.6875 3.515625 16.3125q0 15.21875 -8.453125 35.328125q-8.4375 20.09375 -22.90625 39.796875q0.90625 5.25 2.953125 7.5q2.046875 2.234375 5.375 2.234375q5.25 0 9.21875 -3.0q3.96875 -3.015625 10.109375 -10.3125q1.53125 -1.796875 3.453125 -1.796875zm-15.75 -79.09375q-2.9375 0 -6.65625 10.625q-3.703125 10.609375 -6.53125 26.359375q-2.8125 15.75 -3.0625 30.203125q9.09375 -14.96875 14.46875 -30.0q5.375 -15.046875 5.375 -27.46875q0 -9.71875 -3.59375 -9.71875zm80.3855 79.09375q1.671875 0 2.625 1.546875q0.96875 1.53125 0.96875 4.21875q0 5.125 -2.4375 7.9375q-5.25 6.390625 -11.53125 10.937515q-6.265625 4.546875 -12.40625 4.546875q-9.71875 0 -14.84375 -11.39064q-5.375 6.7812653 -9.40625 9.093765q-4.03125 2.296875 -9.40625 2.296875q-7.8125 0 -12.875 -5.8281403q-5.046875 -5.828125 -5.046875 -15.171875q0 -10.234375 4.34375 -19.0q4.359375 -8.765625 11.96875 -14.328125q7.625 -5.578125 17.09375 -6.59375q2.421875 -24.84375 9.265625 -42.4375q6.859375 -17.59375 18.0 -17.59375q5.5 0 9.140625 4.984375q3.65625 4.984375 3.65625 15.109375q0 14.328125 -7.046875 33.53125q-7.03125 19.203125 -18.8125 39.421875q0.515625 7.421875 2.234375 10.625q1.734375 3.203125 4.421875 3.203125q3.453125 0 7.03125 -3.0625q3.59375 -3.078125 9.609375 -10.25q1.53125 -1.796875 3.453125 -1.796875zm-15.09375 -79.234375q-2.4375 0 -4.875 8.640625q-2.421875 8.640625 -4.15625 22.59375q-1.734375 13.953125 -2.5 29.1875q14.34375 -31.234375 14.34375 -50.171875q0 -4.875 -0.84375 -7.5625q-0.828125 -2.6875 -1.96875 -2.6875zm-36.875 95.5q2.4375 0 4.859375 -1.984375q2.4375 -1.984375 6.15625 -7.359375q-1.28125 -6.921875 -1.28125 -15.5q0 -3.0625 0.25 -9.984375q-7.03125 2.1875 -11.703125 9.421875q-4.671875 7.21875 -4.671875 16.0625q0 9.34375 6.390625 9.34375zm60.93567 12.92189q-8.328125 0 -12.109375 -5.8906403q-3.765625 -5.890625 -3.765625 -15.609375q0 -5.765625 1.46875 -14.78125q1.46875 -9.03125 3.78125 -16.84375q1.15625 -4.09375 3.0625 -5.625q1.921875 -1.53125 6.15625 -1.53125q6.53125 0 6.53125 4.34375q0 3.203125 -2.4375 14.84375q-3.078125 14.078125 -3.078125 19.078125q0 3.84375 1.015625 5.890625q1.03125 2.046875 3.46875 2.046875q2.296875 0 5.75 -3.203125q3.46875 -3.203125 9.21875 -10.109375q1.546875 -1.796875 3.46875 -1.796875q1.65625 0 2.609375 1.546875q0.96875 1.53125 0.96875 4.21875q0 5.125 -2.4375 7.9375q-12.671875 15.48439 -23.671875 15.48439zm59.519287 -14.593765q2.8125 -0.125 4.28125 1.984375q1.484375 2.109375 1.484375 5.1875q0 3.2031403 -1.484375 5.6406403q-1.46875 2.421875 -4.03125 2.421875q-4.609375 0 -8.640625 -0.125q-4.03125 -0.125 -7.09375 -0.265625q-11.78125 -0.5 -16.640625 -0.5q-1.671875 0 -4.875 1.140625q-4.09375 1.28125 -5.625 1.28125q-6.78125 0 -6.78125 -8.70314q0 -5.890625 4.21875 -13.375q4.21875 -7.484375 11.0 -14.515625q6.796875 -7.046875 14.09375 -11.78125l-18.046875 0.5q-2.828125 0.140625 -4.296875 -1.96875q-1.46875 -2.125 -1.46875 -5.0625q0 -3.078125 1.46875 -5.4375q1.46875 -2.375 4.03125 -2.375q5.640625 0 13.953125 0.890625q1.40625 0.140625 6.078125 0.53125q4.671875 0.375 8.640625 0.375q1.28125 0 4.875 -1.03125q0.640625 -0.125 2.484375 -0.625q1.859375 -0.515625 3.140625 -0.515625q2.046875 0 3.390625 1.796875q1.34375 1.78125 1.34375 5.5q0 4.09375 -1.984375 6.53125q-1.984375 2.421875 -5.953125 4.34375q-4.46875 2.046875 -10.5 7.046875q-6.015625 4.984375 -11.390625 11.0625q-5.375 6.078125 -7.9375 11.453125l32.265625 -1.40625z" fill-rule="nonzero"/></g></svg>