<svg version="1.1" viewBox="0.0 0.0 861.2755905511812 116.56430446194226" fill="none" stroke="none" stroke-linecap="square" stroke-miterlimit="10" xmlns:xlink="http://www.w3.org/1999/xlink" xmlns="http://www.w3.org/2000/svg"><clipPath id="p.0"><path d="m0 0l861.2756 0l0 116.56431l-861.2756 0l0 -116.56431z" clip-rule="nonzero"/></clipPath><g clip-path="url(#p.0)"><path fill="#000000" fill-opacity="0.0" d="m0 0l861.2756 0l0 116.56431l-861.2756 0z" fill-rule="evenodd"/><path fill="#000000" fill-opacity="0.0" d="m5.062992 17.96588l851.1496 0l0 90.74016l-851.1496 0z" fill-rule="evenodd"/><path fill="#efefef" d="m322.80957 69.71283q0.625 0 0.984375 0.578125q0.359375 0.578125 0.359375 1.578125q0 1.875 -0.921875 2.984375q-2.296875 2.78125 -4.65625 4.296875q-2.34375 1.5 -5.5625 1.5q-3.546875 0 -5.8125 -2.078125q-2.25 -2.09375 -4.21875 -6.515625q-1.4375 -3.15625 -2.375 -4.71875q-0.9375 -1.5625 -1.859375 -2.203125q-0.90625 -0.65625 -2.296875 -0.796875l-0.53125 3.546875q-1.0 6.875 -3.90625 9.90625q-2.90625 3.015625 -7.984375 3.015625q-3.3125 0 -5.890625 -1.609375q-2.5625 -1.609375 -3.578125 -4.109375q-0.328125 -0.859375 -0.328125 -1.875q0 -1.4375 0.671875 -2.484375q0.671875 -1.0625 1.71875 -1.0625q0.625 0 1.0625 0.3125q0.4375 0.3125 0.8125 1.078125q1.5 2.78125 2.625 3.890625q1.125 1.09375 2.796875 1.09375q1.921875 0 3.28125 -1.75q1.375 -1.75 1.953125 -5.390625l0.671875 -4.5625l-0.765625 0q-1.109375 0 -1.734375 -0.625q-0.609375 -0.625 -0.609375 -1.734375q0 -1.25 0.640625 -1.984375q0.65625 -0.75 1.609375 -0.75l1.578125 0q0.34375 -2.34375 0.484375 -3.265625l1.484375 -10.796875q-1.25 -0.140625 -2.34375 -0.140625q-4.078125 0 -6.203125 1.421875q-2.109375 1.40625 -2.109375 4.046875q0 1.203125 0.265625 1.953125q0.265625 0.734375 0.703125 1.65625q0.1875 0.375 0.1875 0.859375q0 1.046875 -0.984375 1.84375q-0.984375 0.796875 -2.1875 0.796875q-1.53125 0 -2.25 -1.34375q-1.4375 -2.546875 -1.4375 -5.46875q0 -3.03125 1.65625 -5.515625q1.65625 -2.5 5.015625 -4.015625q3.359375 -1.515625 8.296875 -1.515625q2.15625 0 3.953125 0.25q1.8125 0.234375 3.96875 0.90625q2.359375 0.71875 2.359375 2.6875q0 2.640625 -2.265625 2.640625l-1.875 12.90625q5.625 -0.578125 9.140625 -4.828125q3.53125 -4.25 5.890625 -11.53125q0.4375 -1.34375 1.46875 -2.0625q1.03125 -0.734375 2.609375 -0.734375q1.34375 0 2.078125 0.609375q0.75 0.59375 0.75 1.703125q0 0.328125 -0.1875 1.09375q-2.40625 7.921875 -6.875 12.578125q-4.453125 4.65625 -9.734375 6.203125q1.828125 0.421875 3.0 1.296875q1.171875 0.859375 1.984375 2.140625q0.828125 1.265625 1.875 3.515625q1.5 3.171875 2.796875 4.5q1.296875 1.3125 3.015625 1.3125q1.53125 0 2.921875 -1.03125q1.40625 -1.03125 3.515625 -3.53125q0.578125 -0.671875 1.296875 -0.671875zm2.3910828 10.9375q-2.96875 0 -4.75 -2.15625q-1.765625 -2.15625 -1.765625 -5.65625q0 -3.84375 1.765625 -7.265625q1.78125 -3.4375 4.734375 -5.53125q2.953125 -2.09375 6.265625 -2.09375q1.046875 0 1.40625 0.421875q0.359375 0.40625 0.609375 1.453125q1.0 -0.1875 2.109375 -0.1875q2.34375 0 2.34375 1.671875q0 1.015625 -0.71875 4.8125q-1.09375 5.515625 -1.09375 7.671875q0 0.71875 0.359375 1.15625q0.359375 0.421875 0.9375 0.421875q0.90625 0 2.203125 -1.171875q1.296875 -1.171875 3.5 -3.8125q0.578125 -0.671875 1.296875 -0.671875q0.625 0 0.984375 0.578125q0.359375 0.578125 0.359375 1.578125q0 1.921875 -0.90625 2.984375q-1.96875 2.4375 -4.1875 4.125q-2.203125 1.671875 -4.265625 1.671875q-1.578125 0 -2.90625 -1.078125q-1.3125 -1.078125 -1.984375 -2.953125q-2.5 4.03125 -6.296875 4.03125zm1.734375 -4.84375q1.046875 0 2.0 -1.25q0.96875 -1.25 1.40625 -3.3125l1.78125 -8.828125q-2.015625 0.046875 -3.71875 1.515625q-1.703125 1.453125 -2.71875 3.859375q-1.0 2.40625 -1.0 5.09375q0 1.484375 0.59375 2.203125q0.59375 0.71875 1.65625 0.71875zm37.912537 -6.09375q0.625 0 0.984375 0.578125q0.359375 0.578125 0.359375 1.578125q0 1.78125 -0.90625 2.984375q-2.25 2.921875 -5.59375 4.609375q-3.328125 1.671875 -7.515625 1.671875q-3.265625 0 -5.671875 -0.984375q-2.390625 -0.984375 -3.671875 -2.6875q-1.265625 -1.703125 -1.265625 -3.8125q0 -3.171875 2.546875 -5.609375q2.546875 -2.453125 7.296875 -4.71875l-7.875 0.203125q-1.046875 0.046875 -1.609375 -0.75q-0.546875 -0.796875 -0.546875 -1.890625q0 -1.15625 0.546875 -2.046875q0.5625 -0.890625 1.515625 -0.890625q2.21875 0 5.90625 0.34375q0.765625 0.046875 2.796875 0.1875q2.046875 0.140625 3.4375 0.140625q0.484375 0 1.828125 -0.375q0.25 -0.046875 0.9375 -0.234375q0.703125 -0.203125 1.171875 -0.203125q0.78125 0 1.28125 0.671875q0.5 0.671875 0.5 2.0625q0 1.53125 -0.71875 2.40625q-0.71875 0.859375 -2.25 1.53125q-4.375 1.875 -7.265625 4.015625q-2.875 2.125 -2.875 4.234375q0 1.34375 1.25 2.21875q1.25 0.859375 3.703125 0.859375q2.6875 0 5.4375 -1.34375q2.765625 -1.34375 4.96875 -4.078125q0.578125 -0.671875 1.296875 -0.671875zm3.3131714 10.9375q-3.109375 0 -4.53125 -2.203125q-1.421875 -2.203125 -1.421875 -5.859375q0 -2.15625 0.546875 -5.53125q0.5625 -3.390625 1.421875 -6.328125q0.4375 -1.53125 1.15625 -2.109375q0.71875 -0.578125 2.3125 -0.578125q2.4375 0 2.4375 1.640625q0 1.203125 -0.90625 5.5625q-1.15625 5.28125 -1.15625 7.15625q0 1.4375 0.375 2.203125q0.390625 0.765625 1.3125 0.765625q0.859375 0 2.15625 -1.1875q1.296875 -1.203125 3.453125 -3.796875q0.578125 -0.671875 1.296875 -0.671875q0.625 0 0.984375 0.578125q0.359375 0.578125 0.359375 1.578125q0 1.921875 -0.90625 2.984375q-4.75 5.796875 -8.890625 5.796875zm9.323639 0q-1.828125 0 -2.578125 -1.90625q-0.734375 -1.921875 -0.734375 -6.15625q0 -6.234375 1.765625 -11.859375q0.4375 -1.390625 1.421875 -2.03125q0.984375 -0.65625 2.765625 -0.65625q0.953125 0 1.328125 0.25q0.390625 0.234375 0.390625 0.90625q0 0.765625 -0.71875 3.453125q-0.484375 1.921875 -0.78125 3.34375q-0.28125 1.40625 -0.46875 3.53125q1.296875 -3.75 3.09375 -6.34375q1.8125 -2.59375 3.703125 -3.859375q1.890625 -1.28125 3.578125 -1.28125q1.671875 0 2.359375 0.78125q0.703125 0.765625 0.703125 2.34375q0 1.53125 -0.90625 5.5625q-0.390625 1.734375 -0.53125 2.59375q1.59375 -4.03125 3.53125 -6.5625q1.9375 -2.546875 3.8125 -3.625q1.875 -1.09375 3.453125 -1.09375q1.546875 0 2.328125 0.796875q0.796875 0.796875 0.796875 2.328125q0 1.25 -0.53125 4.703125q-0.46875 2.9375 -0.765625 5.546875q-0.28125 2.609375 -0.28125 5.828125q0 1.828125 -0.75 2.625q-0.75 0.78125 -2.421875 0.78125q-1.578125 0 -2.3125 -0.8125q-0.71875 -0.8125 -0.71875 -2.453125q0 -1.90625 0.671875 -6.328125q0.578125 -3.84375 0.578125 -4.890625q0 -0.78125 -0.53125 -0.78125q-0.609375 0 -1.765625 1.609375q-1.15625 1.609375 -2.3125 4.25q-1.140625 2.640625 -1.859375 5.578125q-0.53125 2.296875 -1.234375 3.0625q-0.6875 0.765625 -2.234375 0.765625q-1.578125 0 -2.375 -1.5q-0.78125 -1.515625 -0.78125 -3.671875q0 -1.828125 0.46875 -5.28125q0.390625 -3.078125 0.390625 -4.03125q0 -0.78125 -0.53125 -0.78125q-0.71875 0 -1.828125 1.734375q-1.09375 1.734375 -2.125 4.421875q-1.03125 2.6875 -1.65625 5.28125q-0.53125 2.25 -1.234375 3.046875q-0.6875 0.78125 -2.171875 0.78125zm56.54364 0q-3.3125 0 -5.984375 -1.625q-2.65625 -1.640625 -4.203125 -4.734375q-1.53125 -3.09375 -1.53125 -7.3125q0 -7.296875 3.109375 -13.515625q3.125 -6.21875 9.21875 -9.984375q6.109375 -3.765625 14.640625 -3.765625q2.21875 0 4.734375 0.34375q2.515625 0.328125 4.578125 1.0q1.34375 0.390625 1.34375 1.921875q0 1.25 -0.9375 2.359375q-0.921875 1.09375 -2.171875 1.09375q-0.390625 0 -0.578125 -0.046875q-2.5 -0.578125 -4.28125 -0.84375q-1.765625 -0.265625 -3.734375 -0.265625q-6.09375 0 -10.375 2.953125q-4.265625 2.953125 -6.375 7.8125q-2.109375 4.84375 -2.109375 10.453125q0 4.078125 1.59375 6.3125q1.609375 2.234375 4.203125 2.234375q2.9375 0 5.140625 -2.390625q2.203125 -2.40625 4.03125 -7.78125q1.828125 -5.375 3.59375 -14.59375q0.296875 -1.34375 1.15625 -1.828125q0.875 -0.484375 2.3125 -0.484375q3.40625 0 3.40625 2.21875q0 0.375 -0.140625 0.953125q-1.25 4.65625 -2.28125 10.296875q-1.03125 5.640625 -1.03125 8.5625q0 2.59375 0.765625 3.78125q0.765625 1.171875 2.34375 1.171875q1.546875 0 2.9375 -1.03125q1.390625 -1.03125 3.5 -3.53125q0.578125 -0.671875 1.296875 -0.671875q0.625 0 0.984375 0.578125q0.359375 0.578125 0.359375 1.578125q0 1.875 -0.90625 2.984375q-2.359375 2.828125 -4.625 4.3125q-2.25 1.484375 -5.515625 1.484375q-3.359375 0 -5.421875 -1.9375q-2.0625 -1.9375 -2.59375 -5.5q-3.546875 7.4375 -10.453125 7.4375zm53.368683 -10.9375q0.625 0 0.984375 0.578125q0.359375 0.578125 0.359375 1.578125q0 1.921875 -0.90625 2.984375q-2.171875 2.640625 -4.375 4.21875q-2.203125 1.578125 -5.234375 1.578125q-3.6875 0 -5.953125 -2.109375q-2.25 -2.109375 -2.25 -5.609375q0 -1.875 1.921875 -2.6875q2.109375 -0.921875 3.015625 -1.953125q0.921875 -1.03125 0.921875 -2.515625q0 -0.859375 -0.359375 -1.296875q-0.359375 -0.4375 -0.890625 -0.4375q-1.296875 0 -2.859375 1.875q-1.5625 1.875 -2.90625 4.828125q-1.34375 2.953125 -2.109375 6.078125q-0.53125 2.25 -1.234375 3.046875q-0.6875 0.78125 -2.171875 0.78125q-1.484375 0 -2.1875 -1.078125q-0.6875 -1.078125 -0.9375 -3.328125q-0.234375 -2.265625 -0.234375 -6.625q0 -7.390625 1.5 -15.40625q1.515625 -8.015625 4.46875 -13.46875q2.953125 -5.453125 7.09375 -5.453125q2.203125 0 3.5625 1.90625q1.375 1.890625 1.375 4.921875q0 4.84375 -2.84375 10.046875q-2.828125 5.203125 -9.203125 12.171875q-0.140625 2.5 -0.140625 5.140625q2.296875 -6.0 5.265625 -8.71875q2.984375 -2.71875 5.578125 -2.71875q2.40625 0 3.859375 1.640625q1.46875 1.625 1.46875 4.03125q0 2.640625 -1.34375 4.859375q-1.34375 2.203125 -4.609375 3.921875q0.1875 1.296875 1.171875 2.09375q0.984375 0.78125 2.375 0.78125q1.5 0 2.890625 -1.140625q1.390625 -1.15625 3.640625 -3.84375q0.578125 -0.671875 1.296875 -0.671875zm-15.359375 -29.671875q-0.859375 0 -1.921875 2.484375q-1.046875 2.46875 -2.03125 6.671875q-0.984375 4.1875 -1.609375 9.140625q2.96875 -3.5 4.90625 -7.625q1.953125 -4.140625 1.953125 -7.5q0 -1.53125 -0.34375 -2.34375q-0.328125 -0.828125 -0.953125 -0.828125zm37.387543 29.765625q0.625 0 0.984375 0.609375q0.359375 0.59375 0.359375 1.5q0 1.109375 -0.34375 1.734375q-0.328125 0.625 -1.046875 1.109375l-9.21875 6.1875q-1.8125 9.9375 -4.765625 15.625q-2.953125 5.6875 -7.515625 5.6875q-2.453125 0 -3.984375 -1.515625q-1.53125 -1.515625 -1.53125 -3.953125q0 -2.265625 1.03125 -4.625q1.03125 -2.34375 3.828125 -5.390625q2.8125 -3.046875 7.953125 -6.984375l0.140625 -1.109375q0.34375 -1.765625 0.765625 -5.078125q-0.953125 3.453125 -2.6875 5.25q-1.71875 1.796875 -3.640625 1.796875q-2.15625 0 -3.53125 -1.984375q-1.375 -2.0 -1.375 -4.96875q0 -3.59375 0.484375 -6.59375q0.484375 -3.0 1.59375 -6.375q0.46875 -1.4375 1.328125 -2.0625q0.875 -0.625 2.75 -0.625q1.046875 0 1.453125 0.34375q0.40625 0.328125 0.40625 1.0q0 0.390625 -0.515625 2.59375q-0.484375 1.78125 -0.765625 3.21875q-0.390625 1.96875 -0.6875 3.78125q-0.28125 1.796875 -0.28125 2.9375q0 1.828125 1.015625 1.828125q0.71875 0 1.796875 -1.4375q1.078125 -1.4375 2.296875 -4.359375q1.234375 -2.9375 2.375 -7.21875q0.390625 -1.4375 1.171875 -2.0625q0.796875 -0.625 2.390625 -0.625q1.09375 0 1.53125 0.296875q0.4375 0.28125 0.4375 0.953125q0 1.203125 -1.25 8.265625l-1.25 7.71875q3.6875 -2.78125 7.203125 -5.078125q0.625 -0.390625 1.09375 -0.390625zm-21.015625 27.796875q1.203125 0 2.6875 -2.796875q1.484375 -2.78125 2.96875 -9.25q-3.6875 3.109375 -5.34375 5.671875q-1.65625 2.578125 -1.65625 4.5q0 0.8125 0.3125 1.34375q0.3125 0.53125 1.03125 0.53125zm24.8078 -16.953125q-3.109375 0 -4.53125 -2.203125q-1.421875 -2.203125 -1.421875 -5.859375q0 -2.15625 0.546875 -5.53125q0.5625 -3.390625 1.421875 -6.328125q0.4375 -1.53125 1.15625 -2.109375q0.71875 -0.578125 2.3125 -0.578125q2.4375 0 2.4375 1.640625q0 1.203125 -0.90625 5.5625q-1.15625 5.28125 -1.15625 7.15625q0 1.4375 0.375 2.203125q0.390625 0.765625 1.3125 0.765625q0.859375 0 2.15625 -1.1875q1.296875 -1.203125 3.453125 -3.796875q0.578125 -0.671875 1.296875 -0.671875q0.625 0 0.984375 0.578125q0.359375 0.578125 0.359375 1.578125q0 1.921875 -0.90625 2.984375q-4.75 5.796875 -8.890625 5.796875zm24.10492 -10.9375q0.625 0 0.984375 0.578125q0.359375 0.578125 0.359375 1.578125q0 1.921875 -0.921875 2.984375q-2.0625 2.53125 -4.484375 4.171875q-2.421875 1.625 -5.5 1.625q-4.21875 0 -6.265625 -3.828125q-2.03125 -3.84375 -2.03125 -9.9375q0 -5.859375 1.5 -13.34375q1.515625 -7.5 4.46875 -12.875q2.953125 -5.375 7.03125 -5.375q2.3125 0 3.625 2.140625q1.328125 2.140625 1.328125 6.125q0 5.703125 -3.171875 13.25q-3.171875 7.53125 -8.59375 14.921875q0.34375 1.96875 1.109375 2.8125q0.765625 0.828125 2.015625 0.828125q1.96875 0 3.453125 -1.125q1.484375 -1.125 3.796875 -3.859375q0.578125 -0.671875 1.296875 -0.671875zm-5.90625 -29.671875q-1.109375 0 -2.5 3.984375q-1.390625 3.984375 -2.453125 9.890625q-1.046875 5.90625 -1.140625 11.328125q3.40625 -5.609375 5.421875 -11.25q2.015625 -5.640625 2.015625 -10.296875q0 -3.65625 -1.34375 -3.65625zm30.13678 29.671875q0.625 0 0.984375 0.578125q0.359375 0.578125 0.359375 1.578125q0 1.921875 -0.90625 2.984375q-1.96875 2.390625 -4.328125 4.09375q-2.34375 1.703125 -4.640625 1.703125q-3.65625 0 -5.578125 -4.265625q-2.015625 2.546875 -3.53125 3.40625q-1.5 0.859375 -3.515625 0.859375q-2.9375 0 -4.828125 -2.171875q-1.890625 -2.1875 -1.890625 -5.6875q0 -3.84375 1.625 -7.125q1.625 -3.296875 4.484375 -5.375q2.859375 -2.09375 6.40625 -2.484375q0.921875 -9.3125 3.484375 -15.90625q2.5625 -6.609375 6.75 -6.609375q2.0625 0 3.421875 1.875q1.375 1.875 1.375 5.671875q0 5.375 -2.640625 12.578125q-2.640625 7.1875 -7.0625 14.78125q0.203125 2.78125 0.84375 3.984375q0.65625 1.1875 1.65625 1.1875q1.296875 0 2.640625 -1.140625q1.34375 -1.15625 3.59375 -3.84375q0.578125 -0.671875 1.296875 -0.671875zm-5.65625 -29.71875q-0.921875 0 -1.828125 3.25q-0.90625 3.234375 -1.5625 8.46875q-0.640625 5.234375 -0.9375 10.9375q5.375 -11.703125 5.375 -18.8125q0 -1.828125 -0.3125 -2.828125q-0.296875 -1.015625 -0.734375 -1.015625zm-13.828125 35.8125q0.90625 0 1.8125 -0.734375q0.921875 -0.75 2.3125 -2.765625q-0.46875 -2.59375 -0.46875 -5.8125q0 -1.15625 0.09375 -3.734375q-2.640625 0.8125 -4.390625 3.53125q-1.75 2.703125 -1.75 6.015625q0 3.5 2.390625 3.5zm22.845032 4.84375q-3.109375 0 -4.53125 -2.203125q-1.421875 -2.203125 -1.421875 -5.859375q0 -2.15625 0.546875 -5.53125q0.5625 -3.390625 1.421875 -6.328125q0.4375 -1.53125 1.15625 -2.109375q0.71875 -0.578125 2.3125 -0.578125q2.4375 0 2.4375 1.640625q0 1.203125 -0.90625 5.5625q-1.15625 5.28125 -1.15625 7.15625q0 1.4375 0.375 2.203125q0.390625 0.765625 1.3125 0.765625q0.859375 0 2.15625 -1.1875q1.296875 -1.203125 3.453125 -3.796875q0.578125 -0.671875 1.296875 -0.671875q0.625 0 0.984375 0.578125q0.359375 0.578125 0.359375 1.578125q0 1.921875 -0.90625 2.984375q-4.75 5.796875 -8.890625 5.796875zm22.32367 -5.46875q1.0625 -0.046875 1.609375 0.75q0.546875 0.78125 0.546875 1.9375q0 1.203125 -0.546875 2.125q-0.546875 0.90625 -1.515625 0.90625q-1.71875 0 -3.234375 -0.046875q-1.515625 -0.046875 -2.671875 -0.09375q-4.40625 -0.203125 -6.234375 -0.203125q-0.625 0 -1.828125 0.4375q-1.53125 0.484375 -2.109375 0.484375q-2.546875 0 -2.546875 -3.265625q0 -2.21875 1.578125 -5.015625q1.59375 -2.8125 4.140625 -5.453125q2.546875 -2.640625 5.28125 -4.421875l-6.765625 0.203125q-1.0625 0.046875 -1.625 -0.75q-0.546875 -0.796875 -0.546875 -1.890625q0 -1.15625 0.546875 -2.046875q0.5625 -0.890625 1.515625 -0.890625q2.125 0 5.234375 0.34375q0.53125 0.046875 2.28125 0.1875q1.75 0.140625 3.25 0.140625q0.46875 0 1.8125 -0.375q0.25 -0.046875 0.9375 -0.234375q0.703125 -0.203125 1.1875 -0.203125q0.765625 0 1.265625 0.671875q0.5 0.671875 0.5 2.0625q0 1.53125 -0.75 2.453125q-0.734375 0.90625 -2.21875 1.625q-1.6875 0.765625 -3.953125 2.640625q-2.25 1.875 -4.265625 4.15625q-2.015625 2.28125 -2.96875 4.296875l12.09375 -0.53125z" fill-rule="nonzero"/></g></svg>