<svg version="1.1" viewBox="0.0 0.0 960.0 720.0" fill="none" stroke="none" stroke-linecap="square" stroke-miterlimit="10" xmlns:xlink="http://www.w3.org/1999/xlink" xmlns="http://www.w3.org/2000/svg"><clipPath id="p.0"><path d="m0 0l960.0 0l0 720.0l-960.0 0l0 -720.0z" clip-rule="nonzero"/></clipPath><g clip-path="url(#p.0)"><path fill="#000000" fill-opacity="0.0" d="m0 0l960.0 0l0 720.0l-960.0 0z" fill-rule="evenodd"/><path fill="#000000" fill-opacity="0.0" d="m158.79265 90.272964l641.70074 0l0 247.96849l-641.70074 0z" fill-rule="evenodd"/><path fill="#ffffff" d="m299.9302 225.21346q1.03125 0 1.625 0.96875q0.609375 0.953125 0.609375 2.640625q0 3.109375 -1.515625 4.953125q-3.84375 4.640625 -7.765625 7.171875q-3.921875 2.515625 -9.28125 2.515625q-5.921875 0 -9.6875 -3.484375q-3.75 -3.484375 -7.03125 -10.84375q-2.40625 -5.28125 -3.96875 -7.875q-1.546875 -2.609375 -3.078125 -3.6875q-1.515625 -1.078125 -3.828125 -1.3125l-0.89064026 5.921875q-1.671875 11.4375 -6.515625 16.484375q-4.84375 5.03125 -13.3125 5.03125q-5.53125 0 -9.8125 -2.671875q-4.28125 -2.6875 -5.953125 -6.84375q-0.5625 -1.4375 -0.5625 -3.125q0 -2.40625 1.109375 -4.15625q1.125 -1.765625 2.890625 -1.765625q1.046875 0 1.765625 0.53125q0.71875 0.515625 1.359375 1.796875q2.484375 4.640625 4.359375 6.484375q1.875 1.828125 4.671875 1.828125q3.203125 0 5.484375 -2.921875q2.28125 -2.921875 3.234375 -9.0l1.125 -7.59375l-1.28125 0q-1.84375 0 -2.890625 -1.03125q-1.03125 -1.046875 -1.03125 -2.890625q0 -2.078125 1.078125 -3.3125q1.09375 -1.25 2.6875 -1.25l2.640625 0q0.5625 -3.921875 0.796875 -5.4375l2.484375 -18.0q-2.078125 -0.234375 -3.921875 -0.234375q-6.796875 0 -10.328125 2.359375q-3.515625 2.359375 -3.515625 6.75q0 2.0 0.4375 3.25q0.453125 1.234375 1.171875 2.75q0.3125 0.640625 0.3125 1.4375q0 1.765625 -1.640625 3.09375q-1.640625 1.3125 -3.640625 1.3125q-2.5625 0 -3.75 -2.234375q-2.40625 -4.25 -2.40625 -9.125q0 -5.046875 2.75 -9.203125q2.765625 -4.15625 8.359375 -6.671875q5.609375 -2.53125 13.84375 -2.53125q3.609375 0 6.609375 0.40625q3.0000153 0.40625 6.5937653 1.515625q3.921875 1.203125 3.921875 4.484375q0 4.40625 -3.765625 4.40625l-3.109375 21.515625q9.359375 -0.96875 15.234375 -8.046875q5.875 -7.078125 9.796875 -19.234375q0.71875 -2.234375 2.4375 -3.4375q1.734375 -1.203125 4.359375 -1.203125q2.25 0 3.484375 1.0q1.25 1.0 1.25 2.84375q0 0.5625 -0.328125 1.828125q-4.0 13.203125 -11.4375 20.96875q-7.4375 7.765625 -16.234375 10.3125q3.03125 0.71875 4.984375 2.171875q1.96875 1.4375 3.328125 3.5625q1.359375 2.109375 3.125 5.875q2.46875 5.28125 4.625 7.484375q2.171875 2.1875 5.046875 2.1875q2.5625 0 4.875 -1.71875q2.328125 -1.71875 5.84375 -5.875q0.96875 -1.125 2.171875 -1.125zm4.0005493 18.25q-4.96875 0 -7.9375 -3.59375q-2.953125 -3.609375 -2.953125 -9.453125q0 -6.40625 2.953125 -12.125q2.96875 -5.71875 7.890625 -9.1875q4.921875 -3.484375 10.4375 -3.484375q1.765625 0 2.359375 0.6875q0.609375 0.671875 1.0 2.4375q1.6875 -0.328125 3.515625 -0.328125q3.921875 0 3.921875 2.796875q0 1.6875 -1.1875 8.0q-1.84375 9.203125 -1.84375 12.796875q0 1.203125 0.59375 1.921875q0.609375 0.71875 1.5625 0.71875q1.515625 0 3.671875 -1.953125q2.171875 -1.953125 5.84375 -6.359375q0.96875 -1.125 2.171875 -1.125q1.03125 0 1.625 0.96875q0.609375 0.953125 0.609375 2.640625q0 3.1875 -1.515625 4.953125q-3.28125 4.078125 -6.96875 6.890625q-3.671875 2.796875 -7.125 2.796875q-2.625 0 -4.828125 -1.796875q-2.203125 -1.8125 -3.328125 -4.921875q-4.15625 6.71875 -10.46875 6.71875zm2.875 -8.09375q1.75 0 3.34375 -2.078125q1.609375 -2.078125 2.328125 -5.515625l2.96875 -14.71875q-3.359375 0.078125 -6.203125 2.515625q-2.84375 2.4375 -4.53125 6.4375q-1.671875 4.0 -1.671875 8.484375q0 2.484375 1.0 3.6875q1.0 1.1875 2.765625 1.1875zm63.203064 -10.15625q1.03125 0 1.625 0.96875q0.609375 0.953125 0.609375 2.640625q0 2.953125 -1.515625 4.953125q-3.765625 4.875 -9.328125 7.6875q-5.5625 2.796875 -12.515625 2.796875q-5.4375 0 -9.4375 -1.640625q-4.0 -1.640625 -6.125 -4.484375q-2.125 -2.84375 -2.125 -6.359375q0 -5.28125 4.234375 -9.359375q4.25 -4.078125 12.171875 -7.84375l-13.125 0.328125q-1.75 0.078125 -2.671875 -1.234375q-0.921875 -1.328125 -0.921875 -3.171875q0 -1.921875 0.921875 -3.390625q0.921875 -1.484375 2.515625 -1.484375q3.6875 0 9.84375 0.5625q1.28125 0.078125 4.671875 0.328125q3.40625 0.234375 5.71875 0.234375q0.8125 0 3.046875 -0.640625q0.40625 -0.09375 1.5625 -0.40625q1.15625 -0.328125 1.953125 -0.328125q1.28125 0 2.125 1.125q0.84375 1.125 0.84375 3.4375q0 2.5625 -1.203125 4.0q-1.203125 1.4375 -3.765625 2.5625q-7.28125 3.125 -12.078125 6.6875q-4.796875 3.5625 -4.796875 7.078125q0 2.234375 2.078125 3.671875q2.078125 1.4375 6.15625 1.4375q4.484375 0 9.078125 -2.234375q4.609375 -2.234375 8.28125 -6.796875q0.96875 -1.125 2.171875 -1.125zm5.5218506 18.25q-5.203125 0 -7.5625 -3.671875q-2.359375 -3.6875 -2.359375 -9.78125q0 -3.59375 0.90625 -9.234375q0.921875 -5.640625 2.375 -10.515625q0.71875 -2.5625 1.90625 -3.515625q1.203125 -0.96875 3.84375 -0.96875q4.078125 0 4.078125 2.71875q0 2.0 -1.515625 9.28125q-1.921875 8.796875 -1.921875 11.921875q0 2.40625 0.640625 3.6875q0.640625 1.265625 2.15625 1.265625q1.453125 0 3.609375 -2.0q2.15625 -2.0 5.75 -6.3125q0.96875 -1.125 2.171875 -1.125q1.03125 0 1.625 0.96875q0.609375 0.953125 0.609375 2.640625q0 3.1875 -1.515625 4.953125q-7.921875 9.6875 -14.796875 9.6875zm15.508087 0q-3.03125 0 -4.28125 -3.203125q-1.234375 -3.203125 -1.234375 -10.25q0 -10.390625 2.953125 -19.75q0.734375 -2.328125 2.359375 -3.40625q1.640625 -1.078125 4.609375 -1.078125q1.59375 0 2.234375 0.40625q0.640625 0.390625 0.640625 1.515625q0 1.28125 -1.203125 5.765625q-0.796875 3.1875 -1.28125 5.546875q-0.46875 2.359375 -0.796875 5.890625q2.171875 -6.25 5.171875 -10.5625q3.0 -4.328125 6.15625 -6.4375q3.15625 -2.125 5.953125 -2.125q2.796875 0 3.953125 1.28125q1.171875 1.28125 1.171875 3.921875q0 2.5625 -1.515625 9.28125q-0.640625 2.875 -0.890625 4.3125q2.640625 -6.71875 5.875 -10.953125q3.25 -4.25 6.359375 -6.046875q3.125 -1.796875 5.765625 -1.796875q2.5625 0 3.875 1.328125q1.328125 1.3125 1.328125 3.875q0 2.078125 -0.875 7.84375q-0.796875 4.875 -1.28125 9.234375q-0.484375 4.359375 -0.484375 9.71875q0 3.046875 -1.25 4.375q-1.234375 1.3125 -4.03125 1.3125q-2.640625 0 -3.84375 -1.359375q-1.1875 -1.359375 -1.1875 -4.09375q0 -3.1875 1.109375 -10.546875q0.96875 -6.40625 0.96875 -8.171875q0 -1.28125 -0.890625 -1.28125q-1.03125 0 -2.953125 2.6875q-1.921875 2.671875 -3.84375 7.078125q-1.921875 4.40625 -3.109375 9.28125q-0.890625 3.84375 -2.046875 5.125q-1.15625 1.28125 -3.71875 1.28125q-2.640625 0 -3.96875 -2.515625q-1.3125 -2.53125 -1.3125 -6.125q0 -3.046875 0.796875 -8.8125q0.640625 -5.109375 0.640625 -6.71875q0 -1.28125 -0.875 -1.28125q-1.203125 0 -3.046875 2.890625q-1.828125 2.875 -3.5625 7.359375q-1.71875 4.484375 -2.75 8.796875q-0.890625 3.765625 -2.046875 5.09375q-1.15625 1.3125 -3.640625 1.3125zm94.24432 0q-5.515625 0 -9.96875 -2.71875q-4.4375 -2.734375 -7.0 -7.890625q-2.546875 -5.15625 -2.546875 -12.203125q0 -12.15625 5.1875 -22.515625q5.203125 -10.359375 15.359375 -16.640625q10.171875 -6.28125 24.40625 -6.28125q3.6875 0 7.875 0.5625q4.203125 0.5625 7.640625 1.6875q2.25 0.640625 2.25 3.1875q0 2.09375 -1.5625 3.9375q-1.5625 1.828125 -3.640625 1.828125q-0.640625 0 -0.953125 -0.078125q-4.171875 -0.96875 -7.140625 -1.40625q-2.953125 -0.4375 -6.21875 -0.4375q-10.171875 0 -17.296875 4.921875q-7.109375 4.921875 -10.640625 13.0q-3.515625 8.078125 -3.515625 17.4375q0 6.796875 2.671875 10.53125q2.6875 3.71875 7.015625 3.71875q4.875 0 8.546875 -4.0q3.6875 -4.0 6.71875 -12.953125q3.046875 -8.96875 6.015625 -24.328125q0.484375 -2.25 1.921875 -3.046875q1.4375 -0.796875 3.828125 -0.796875q5.6875 0 5.6875 3.671875q0 0.640625 -0.234375 1.609375q-2.09375 7.75 -3.8125 17.15625q-1.71875 9.40625 -1.71875 14.28125q0 4.3125 1.28125 6.28125q1.28125 1.953125 3.921875 1.953125q2.5625 0 4.875 -1.71875q2.328125 -1.71875 5.84375 -5.875q0.96875 -1.125 2.15625 -1.125q1.046875 0 1.640625 0.96875q0.609375 0.953125 0.609375 2.640625q0 3.109375 -1.515625 4.953125q-3.921875 4.71875 -7.6875 7.203125q-3.765625 2.484375 -9.203125 2.484375q-5.59375 0 -9.046875 -3.234375q-3.4375 -3.25 -4.3125 -9.171875q-5.921875 12.40625 -17.4375 12.40625zm88.95807 -18.25q1.046875 0 1.640625 0.96875q0.59375 0.953125 0.59375 2.640625q0 3.1875 -1.515625 4.953125q-3.59375 4.40625 -7.28125 7.046875q-3.671875 2.640625 -8.71875 2.640625q-6.15625 0 -9.921875 -3.515625q-3.75 -3.53125 -3.75 -9.375q0 -3.109375 3.1875 -4.46875q3.53125 -1.53125 5.046875 -3.25q1.515625 -1.71875 1.515625 -4.203125q0 -1.4375 -0.59375 -2.15625q-0.59375 -0.71875 -1.484375 -0.71875q-2.15625 0 -4.765625 3.125q-2.59375 3.109375 -4.84375 8.03125q-2.234375 4.921875 -3.5 10.125q-0.890625 3.765625 -2.046875 5.09375q-1.15625 1.3125 -3.640625 1.3125q-2.484375 0 -3.640625 -1.796875q-1.15625 -1.8125 -1.5625 -5.5625q-0.390625 -3.765625 -0.390625 -11.046875q0 -12.3125 2.515625 -25.671875q2.515625 -13.375 7.4375 -22.453125q4.921875 -9.078125 11.796875 -9.078125q3.6875 0 5.96875 3.171875q2.28125 3.15625 2.28125 8.1875q0 8.078125 -4.734375 16.765625q-4.71875 8.671875 -15.359375 20.28125q-0.234375 4.15625 -0.234375 8.5625q3.84375 -10.0 8.796875 -14.515625q4.96875 -4.53125 9.28125 -4.53125q4.0 0 6.4375 2.71875q2.453125 2.71875 2.453125 6.71875q0 4.40625 -2.25 8.09375q-2.234375 3.671875 -7.671875 6.546875q0.3125 2.15625 1.953125 3.484375q1.640625 1.3125 3.96875 1.3125q2.46875 0 4.78125 -1.90625q2.328125 -1.921875 6.09375 -6.40625q0.953125 -1.125 2.15625 -1.125zm-25.59375 -49.4375q-1.4375 0 -3.203125 4.125q-1.765625 4.109375 -3.40625 11.109375q-1.640625 7.0 -2.671875 15.25q4.953125 -5.84375 8.1875 -12.71875q3.25 -6.890625 3.25 -12.484375q0 -2.5625 -0.5625 -3.921875q-0.5625 -1.359375 -1.59375 -1.359375zm62.31244 49.59375q1.046875 0 1.640625 1.0q0.609375 1.0 0.609375 2.53125q0 1.84375 -0.5625 2.890625q-0.5625 1.03125 -1.765625 1.828125l-15.359375 10.3125q-3.046875 16.562515 -7.96875 26.04689q-4.90625 9.484375 -12.515625 9.484375q-4.078125 0 -6.640625 -2.53125q-2.546875 -2.515625 -2.546875 -6.59375q0 -3.765625 1.71875 -7.6875q1.71875 -3.90625 6.390625 -9.000015q4.6875 -5.078125 13.25 -11.640625l0.234375 -1.828125q0.5625 -2.96875 1.28125 -8.484375q-1.609375 5.765625 -4.484375 8.765625q-2.875 3.0 -6.078125 3.0q-3.59375 0 -5.875 -3.3125q-2.28125 -3.328125 -2.28125 -8.296875q0 -6.0 0.796875 -11.0q0.796875 -5.0 2.640625 -10.59375q0.796875 -2.40625 2.234375 -3.4375q1.4375 -1.046875 4.5625 -1.046875q1.765625 0 2.4375 0.5625q0.6875 0.5625 0.6875 1.671875q0 0.640625 -0.890625 4.328125q-0.796875 2.953125 -1.265625 5.359375q-0.640625 3.28125 -1.125 6.28125q-0.484375 3.0 -0.484375 4.921875q0 3.03125 1.6875 3.03125q1.1875 0 2.984375 -2.390625q1.8125 -2.40625 3.84375 -7.28125q2.046875 -4.890625 3.96875 -12.0q0.640625 -2.40625 1.953125 -3.4375q1.328125 -1.046875 3.96875 -1.046875q1.84375 0 2.5625 0.484375q0.71875 0.484375 0.71875 1.59375q0 2.0 -2.078125 13.765625l-2.09375 12.875q6.171875 -4.640625 12.0 -8.484375q1.046875 -0.640625 1.84375 -0.640625zm-35.03125 46.32814q2.0 0 4.46875 -4.640625q2.484375 -4.640625 4.96875 -15.437515q-6.15625 5.2031403 -8.921875 9.468765q-2.765625 4.28125 -2.765625 7.484375q0 1.359375 0.515625 2.234375q0.53125 0.890625 1.734375 0.890625zm41.361816 -28.23439q-5.203125 0 -7.5625 -3.671875q-2.359375 -3.6875 -2.359375 -9.78125q0 -3.59375 0.90625 -9.234375q0.921875 -5.640625 2.375 -10.515625q0.71875 -2.5625 1.90625 -3.515625q1.203125 -0.96875 3.84375 -0.96875q4.078125 0 4.078125 2.71875q0 2.0 -1.515625 9.28125q-1.921875 8.796875 -1.921875 11.921875q0 2.40625 0.640625 3.6875q0.640625 1.265625 2.15625 1.265625q1.453125 0 3.609375 -2.0q2.15625 -2.0 5.75 -6.3125q0.96875 -1.125 2.171875 -1.125q1.03125 0 1.625 0.96875q0.609375 0.953125 0.609375 2.640625q0 3.1875 -1.515625 4.953125q-7.921875 9.6875 -14.796875 9.6875zm40.148743 -18.25q1.046875 0 1.640625 0.96875q0.609375 0.953125 0.609375 2.640625q0 3.1875 -1.53125 4.953125q-3.4375 4.234375 -7.484375 6.96875q-4.03125 2.71875 -9.15625 2.71875q-7.03125 0 -10.4375 -6.40625q-3.390625 -6.40625 -3.390625 -16.5625q0 -9.75 2.515625 -22.234375q2.515625 -12.484375 7.4375 -21.4375q4.921875 -8.96875 11.71875 -8.96875q3.84375 0 6.03125 3.5625q2.203125 3.5625 2.203125 10.203125q0 9.515625 -5.28125 22.078125q-5.265625 12.5625 -14.3125 24.875q0.5625 3.28125 1.84375 4.6875q1.28125 1.390625 3.359375 1.390625q3.28125 0 5.75 -1.875q2.484375 -1.875 6.328125 -6.4375q0.953125 -1.125 2.15625 -1.125zm-9.84375 -49.4375q-1.828125 0 -4.15625 6.640625q-2.3125 6.640625 -4.078125 16.484375q-1.765625 9.84375 -1.921875 18.875q5.6875 -9.359375 9.046875 -18.75q3.359375 -9.40625 3.359375 -17.171875q0 -6.078125 -2.25 -6.078125zm50.24878 49.4375q1.03125 0 1.625 0.96875q0.609375 0.953125 0.609375 2.640625q0 3.1875 -1.515625 4.953125q-3.28125 4.0 -7.203125 6.84375q-3.921875 2.84375 -7.75 2.84375q-6.09375 0 -9.28125 -7.125q-3.359375 4.234375 -5.890686 5.6875q-2.515625 1.4375 -5.875 1.4375q-4.875 0 -8.046875 -3.640625q-3.15625 -3.640625 -3.15625 -9.484375q0 -6.40625 2.71875 -11.875q2.71875 -5.484375 7.484375 -8.96875q4.765625 -3.484375 10.687561 -4.125q1.515625 -15.515625 5.796875 -26.515625q4.28125 -11.0 11.234375 -11.0q3.4375 0 5.71875 3.125q2.28125 3.125 2.28125 9.4375q0 8.953125 -4.40625 20.953125q-4.390625 12.0 -11.75 24.640625q0.3125 4.640625 1.390625 6.640625q1.09375 2.0 2.765625 2.0q2.15625 0 4.390625 -1.90625q2.25 -1.921875 6.015625 -6.40625q0.953125 -1.125 2.15625 -1.125zm-9.4375 -49.515625q-1.53125 0 -3.046875 5.40625q-1.515625 5.390625 -2.59375 14.109375q-1.078125 8.71875 -1.5625 18.25q8.953125 -19.53125 8.953125 -31.359375q0 -3.046875 -0.515625 -4.71875q-0.515625 -1.6875 -1.234375 -1.6875zm-23.046936 59.671875q1.515625 0 3.03125 -1.234375q1.53125 -1.234375 3.859436 -4.59375q-0.8125 -4.328125 -0.8125 -9.6875q0 -1.921875 0.171875 -6.234375q-4.406311 1.359375 -7.328186 5.875q-2.921875 4.515625 -2.921875 10.046875q0 5.828125 4.0 5.828125zm38.090637 8.09375q-5.203125 0 -7.5625 -3.671875q-2.359375 -3.6875 -2.359375 -9.78125q0 -3.59375 0.90625 -9.234375q0.921875 -5.640625 2.375 -10.515625q0.71875 -2.5625 1.90625 -3.515625q1.203125 -0.96875 3.84375 -0.96875q4.078125 0 4.078125 2.71875q0 2.0 -1.515625 9.28125q-1.921875 8.796875 -1.921875 11.921875q0 2.40625 0.640625 3.6875q0.640625 1.265625 2.15625 1.265625q1.453125 0 3.609375 -2.0q2.15625 -2.0 5.75 -6.3125q0.96875 -1.125 2.171875 -1.125q1.03125 0 1.625 0.96875q0.609375 0.953125 0.609375 2.640625q0 3.1875 -1.515625 4.953125q-7.921875 9.6875 -14.796875 9.6875zm37.195557 -9.125q1.75 -0.078125 2.671875 1.25q0.921875 1.3125 0.921875 3.234375q0 2.0 -0.921875 3.515625q-0.921875 1.515625 -2.515625 1.515625q-2.875 0 -5.40625 -0.078125q-2.515625 -0.078125 -4.4375 -0.15625q-7.359375 -0.328125 -10.390625 -0.328125q-1.046875 0 -3.046875 0.71875q-2.5625 0.8125 -3.515625 0.8125q-4.25 0 -4.25 -5.453125q0 -3.671875 2.640625 -8.34375q2.640625 -4.6875 6.875 -9.078125q4.25 -4.40625 8.8125 -7.375l-11.28125 0.328125q-1.765625 0.078125 -2.6875 -1.234375q-0.90625 -1.328125 -0.90625 -3.171875q0 -1.921875 0.90625 -3.390625q0.921875 -1.484375 2.53125 -1.484375q3.515625 0 8.71875 0.5625q0.875 0.078125 3.796875 0.328125q2.921875 0.234375 5.40625 0.234375q0.796875 0 3.03125 -0.640625q0.40625 -0.09375 1.5625 -0.40625q1.15625 -0.328125 1.96875 -0.328125q1.265625 0 2.109375 1.125q0.84375 1.125 0.84375 3.4375q0 2.5625 -1.25 4.09375q-1.234375 1.515625 -3.703125 2.71875q-2.8125 1.265625 -6.578125 4.390625q-3.75 3.125 -7.109375 6.921875q-3.359375 3.796875 -4.953125 7.15625l20.15625 -0.875z" fill-rule="nonzero"/></g></svg>