<svg version="1.1" viewBox="0.0 0.0 917.3044619422573 252.45669291338584" fill="none" stroke="none" stroke-linecap="square" stroke-miterlimit="10" xmlns:xlink="http://www.w3.org/1999/xlink" xmlns="http://www.w3.org/2000/svg"><clipPath id="p.0"><path d="m0 0l917.30444 0l0 252.4567l-917.30444 0l0 -252.4567z" clip-rule="nonzero"/></clipPath><g clip-path="url(#p.0)"><path fill="#000000" fill-opacity="0.0" d="m0 0l917.30444 0l0 252.4567l-917.30444 0z" fill-rule="evenodd"/><path fill="#000000" fill-opacity="0.0" d="m-1.7007874 2.6272967l923.3701 0l0 229.00787l-923.3701 0z" fill-rule="evenodd"/><path fill="#000000" d="m244.31297 130.385q1.25 0 1.96875 1.15625q0.734375 1.140625 0.734375 3.15625q0 3.75 -1.828125 5.953125q-4.609375 5.578125 -9.3125 8.609375q-4.703125 3.015625 -11.140625 3.015625q-7.109375 0 -11.625 -4.171875q-4.5 -4.1875 -8.4375 -13.015625q-2.875 -6.34375 -4.75 -9.453133q-1.875 -3.125 -3.703125 -4.421875q-1.8125 -1.296875 -4.609375 -1.578125l-1.046875 7.09375q-2.015625 13.734383 -7.828125 19.781258q-5.8125 6.046875 -15.984375 6.046875q-6.625 0 -11.765625 -3.203125q-5.125 -3.21875 -7.140625 -8.21875q-0.671875 -1.734375 -0.671875 -3.75q0 -2.875 1.34375 -4.984375q1.34375 -2.109375 3.453125 -2.109375q1.25 0 2.109375 0.625q0.859375 0.625 1.640625 2.15625q2.96875 5.5625 5.21875 7.78125q2.265625 2.203125 5.625 2.203125q3.84375 0 6.578125 -3.5q2.734375 -3.515625 3.890625 -10.8125l1.34375 -9.109383l-1.546875 0q-2.203125 0 -3.453125 -1.25q-1.25 -1.25 -1.25 -3.453125q0 -2.5 1.296875 -3.984375q1.296875 -1.5 3.21875 -1.5l3.171875 0q0.671875 -4.703125 0.953125 -6.515625l2.984375 -21.609375q-2.5 -0.28125 -4.703125 -0.28125q-8.171875 0 -12.390625 2.828125q-4.21875 2.828125 -4.21875 8.109375q0 2.40625 0.515625 3.890625q0.53125 1.484375 1.40625 3.3125q0.375 0.765625 0.375 1.734375q0 2.109375 -1.96875 3.703125q-1.96875 1.578125 -4.359375 1.578125q-3.078125 0 -4.515625 -2.6875q-2.875 -5.09375 -2.875 -10.953125q0 -6.046875 3.296875 -11.03125q3.3125 -5.0 10.03125 -8.015625q6.734375 -3.03125 16.609375 -3.03125q4.328125 0 7.921875 0.484375q3.609375 0.46875 7.921875 1.8125q4.703125 1.453125 4.703125 5.390625q0 5.265625 -4.515625 5.265625l-3.734375 25.828125q11.234375 -1.15625 18.28125 -9.640625q7.0625 -8.5 11.765625 -23.09375q0.859375 -2.6875 2.921875 -4.125q2.0625 -1.4375 5.234375 -1.4375q2.6875 0 4.171875 1.203125q1.5 1.1875 1.5 3.40625q0 0.671875 -0.390625 2.203125q-4.796875 15.84375 -13.734375 25.15625q-8.921875 9.3125 -19.484375 12.375q3.65625 0.875 6.0 2.609375q2.359375 1.71875 3.984375 4.265625q1.640625 2.53125 3.75 7.0468826q2.96875 6.34375 5.5625 8.984375q2.59375 2.640625 6.046875 2.640625q3.078125 0 5.859375 -2.0625q2.78125 -2.078125 7.015625 -7.0625q1.140625 -1.34375 2.578125 -1.34375zm4.813217 21.890625q-5.953125 0 -9.515625 -4.3125q-3.546875 -4.328125 -3.546875 -11.34375q0 -7.671875 3.546875 -14.531258q3.5625 -6.875 9.453125 -11.046875q5.9062347 -4.171875 12.53125 -4.171875q2.125 0 2.84375 0.8125q0.71875 0.8125 1.1875 2.921875q2.015625 -0.375 4.234375 -0.375q4.703125 0 4.703125 3.359375q0 2.015625 -1.4375 9.59375q-2.21875 11.046883 -2.21875 15.359383q0 1.4375 0.71875 2.3125q0.71875 0.859375 1.875 0.859375q1.828125 0 4.421875 -2.34375q2.59375 -2.359375 7.0 -7.640625q1.15625 -1.34375 2.59375 -1.34375q1.25 0 1.96875 1.15625q0.71875 1.140625 0.71875 3.15625q0 3.84375 -1.8125 5.953125q-3.9375 4.90625 -8.359375 8.265625q-4.421875 3.359375 -8.546875 3.359375q-3.171875 0 -5.8125 -2.15625q-2.625 -2.171875 -3.984375 -5.90625q-4.984375 8.0625 -12.5625 8.0625zm3.453125 -9.703125q2.1093597 0 4.03125 -2.484375q1.921875 -2.5 2.78125 -6.640625l3.546875 -17.656258q-4.03125 0.09375 -7.4375153 3.03125q-3.4062347 2.921875 -5.4218597 7.71875q-2.015625 4.7968826 -2.015625 10.171883q0 2.984375 1.203125 4.421875q1.203125 1.4375 3.3125 1.4375zm75.84064 -12.1875q1.25 0 1.96875 1.15625q0.71875 1.140625 0.71875 3.15625q0 3.5625 -1.828125 5.953125q-4.515625 5.859375 -11.1875 9.21875q-6.671875 3.359375 -15.015625 3.359375q-6.53125 0 -11.328125 -1.96875q-4.796875 -1.96875 -7.34375 -5.375q-2.546875 -3.40625 -2.546875 -7.625q0 -6.34375 5.078125 -11.234383q5.09375 -4.890625 14.59375 -9.40625l-15.734375 0.375q-2.109375 0.09375 -3.21875 -1.484375q-1.109375 -1.578125 -1.109375 -3.796875q0 -2.296875 1.109375 -4.0625q1.109375 -1.78125 3.03125 -1.78125q4.40625 0 11.796875 0.671875q1.546875 0.09375 5.625 0.390625q4.078125 0.28125 6.859375 0.28125q0.953125 0 3.640625 -0.78125q0.484375 -0.09375 1.875 -0.46875q1.390625 -0.390625 2.359375 -0.390625q1.53125 0 2.53125 1.34375q1.015625 1.34375 1.015625 4.125q0 3.078125 -1.4375 4.8125q-1.4375 1.71875 -4.515625 3.0625q-8.734375 3.75 -14.5 8.03125q-5.75 4.2656326 -5.75 8.484383q0 2.6875 2.484375 4.421875q2.5 1.71875 7.40625 1.71875q5.375 0 10.890625 -2.6875q5.515625 -2.6875 9.9375 -8.15625q1.15625 -1.34375 2.59375 -1.34375zm6.6262207 21.890625q-6.25 0 -9.078125 -4.421875q-2.828125 -4.421875 -2.828125 -11.703125q0 -4.328125 1.09375 -11.093758q1.109375 -6.765625 2.84375 -12.625q0.859375 -3.078125 2.296875 -4.21875q1.4375 -1.15625 4.609375 -1.15625q4.890625 0 4.890625 3.265625q0 2.390625 -1.8125 11.125q-2.3125 10.562508 -2.3125 14.312508q0 2.875 0.765625 4.421875q0.765625 1.53125 2.59375 1.53125q1.734375 0 4.328125 -2.390625q2.59375 -2.40625 6.90625 -7.59375q1.15625 -1.34375 2.59375 -1.34375q1.25 0 1.96875 1.15625q0.71875 1.140625 0.71875 3.15625q0 3.84375 -1.828125 5.953125q-9.5 11.625 -17.75 11.625zm18.615967 0q-3.640625 0 -5.140625 -3.84375q-1.484375 -3.84375 -1.484375 -12.28125q0 -12.484383 3.5625 -23.718758q0.859375 -2.78125 2.828125 -4.078125q1.96875 -1.296875 5.515625 -1.296875q1.921875 0 2.6875 0.484375q0.765625 0.46875 0.765625 1.8125q0 1.546875 -1.4375 6.921875q-0.953125 3.828125 -1.53125 6.671875q-0.578125 2.828125 -0.96875 7.0468826q2.59375 -7.4843826 6.1875 -12.656258q3.609375 -5.1875 7.390625 -7.734375q3.796875 -2.546875 7.15625 -2.546875q3.359375 0 4.75 1.546875q1.40625 1.53125 1.40625 4.6875q0 3.078125 -1.828125 11.140625q-0.765625 3.453125 -1.0625 5.1875076q3.171875 -8.062508 7.0625 -13.156258q3.890625 -5.09375 7.625 -7.25q3.75 -2.15625 6.921875 -2.15625q3.0625 0 4.640625 1.59375q1.59375 1.578125 1.59375 4.640625q0 2.5 -1.046875 9.40625q-0.96875 5.8593826 -1.546875 11.093758q-0.578125 5.234375 -0.578125 11.65625q0 3.65625 -1.484375 5.25q-1.484375 1.578125 -4.84375 1.578125q-3.171875 0 -4.609375 -1.625q-1.4375 -1.640625 -1.4375 -4.90625q0 -3.84375 1.34375 -12.671875q1.15625 -7.6875076 1.15625 -9.796883q0 -1.53125 -1.0625 -1.53125q-1.25 0 -3.5625 3.21875q-2.296875 3.2187576 -4.609375 8.500008q-2.296875 5.265625 -3.734375 11.125q-1.0625 4.609375 -2.453125 6.15625q-1.390625 1.53125 -4.453125 1.53125q-3.171875 0 -4.765625 -3.015625q-1.578125 -3.03125 -1.578125 -7.359375q0 -3.640625 0.96875 -10.5625q0.765625 -6.1406326 0.765625 -8.062508q0 -1.53125 -1.0625 -1.53125q-1.4375 0 -3.65625 3.453125q-2.203125 3.4531326 -4.265625 8.828133q-2.0625 5.375 -3.3125 10.5625q-1.046875 4.515625 -2.4375 6.109375q-1.390625 1.578125 -4.375 1.578125zm113.087006 0q-6.625 0 -11.953125 -3.265625q-5.328125 -3.265625 -8.40625 -9.453125q-3.0625 -6.203125 -3.0625 -14.640633q0 -14.59375 6.234375 -27.03125q6.25 -12.4375 18.4375 -19.96875q12.1875 -7.53125 29.28125 -7.53125q4.421875 0 9.453125 0.671875q5.0469055 0.671875 9.171875 2.015625q2.6875 0.765625 2.6875 3.84375q0 2.484375 -1.875 4.703125q-1.875 2.203125 -4.359375 2.203125q-0.7812195 0 -1.1562195 -0.09375q-5.0000305 -1.15625 -8.5469055 -1.671875q-3.546875 -0.53125 -7.484375 -0.53125q-12.1875 0 -20.734375 5.90625q-8.546875 5.890625 -12.78125 15.59375q-4.21875 9.6875 -4.21875 20.921875q0 8.156258 3.21875 12.625008q3.21875 4.46875 8.40625 4.46875q5.84375 0 10.265625 -4.796875q4.421875 -4.8125 8.0625 -15.562508q3.65625 -10.75 7.203125 -29.171875q0.578125 -2.6875 2.296875 -3.640625q1.734375 -0.96875 4.609375 -0.96875q6.828125 0 6.828125 4.40625q0 0.765625 -0.296875 1.921875q-2.5 9.3125 -4.5625 20.59375q-2.0625 11.28125 -2.0625 17.140633q0 5.1875 1.53125 7.546875q1.546875 2.34375 4.71875 2.34375q3.0625305 0 5.84375 -2.0625q2.796875 -2.078125 7.015625 -7.0625q1.15625 -1.34375 2.59375 -1.34375q1.25 0 1.96875 1.15625q0.71875 1.140625 0.71875 3.15625q0 3.75 -1.828125 5.953125q-4.703125 5.671875 -9.21875 8.65625q-4.515625 2.96875 -11.03125 2.96875q-6.71875 0 -10.859375 -3.890625q-4.125 -3.890625 -5.171875 -11.0q-7.109375 14.890625 -20.9375 14.890625zm106.75281 -21.890625q1.25 0 1.96875 1.15625q0.71875 1.140625 0.71875 3.15625q0 3.84375 -1.828125 5.953125q-4.3125 5.28125 -8.734375 8.453125q-4.40625 3.171875 -10.453125 3.171875q-7.390625 0 -11.90625 -4.21875q-4.515625 -4.234375 -4.515625 -11.234375q0 -3.75 3.84375 -5.390625q4.21875 -1.8125 6.046875 -3.8750076q1.828125 -2.0625 1.828125 -5.046875q0 -1.734375 -0.734375 -2.59375q-0.71875 -0.859375 -1.765625 -0.859375q-2.59375 0 -5.71875 3.75q-3.109375 3.734375 -5.796875 9.640633q-2.6875 5.90625 -4.234375 12.140625q-1.046875 4.515625 -2.453125 6.109375q-1.390625 1.578125 -4.359375 1.578125q-2.96875 0 -4.375 -2.15625q-1.390625 -2.171875 -1.875 -6.671875q-0.46875 -4.515625 -0.46875 -13.25q0 -14.796883 3.015625 -30.828133q3.03125 -16.03125 8.9375 -26.921875q5.90625 -10.890625 14.15625 -10.890625q4.421875 0 7.15625 3.796875q2.734375 3.78125 2.734375 9.828125q0 9.703125 -5.671875 20.125q-5.65625 10.40625 -18.421875 24.328125q-0.296875 4.984375 -0.296875 10.265633q4.609375 -12.000008 10.5625 -17.421883q5.953125 -5.421875 11.140625 -5.421875q4.796875 0 7.71875 3.265625q2.9375 3.265625 2.9375 8.0625q0 5.28125 -2.6875 9.703133q-2.6875 4.40625 -9.21875 7.859375q0.390625 2.59375 2.34375 4.1875q1.96875 1.578125 4.765625 1.578125q2.96875 0 5.75 -2.296875q2.78125 -2.3125 7.296875 -7.6875q1.15625 -1.34375 2.59375 -1.34375zm-30.71875 -59.328133q-1.734375 0 -3.84375 4.953125q-2.109375 4.9375 -4.078125 13.34375q-1.96875 8.390625 -3.21875 18.28125q5.953125 -7.015625 9.84375 -15.265625q3.890625 -8.265625 3.890625 -14.984375q0 -3.0625 -0.671875 -4.6875q-0.671875 -1.640625 -1.921875 -1.640625zm74.79065 59.515633q1.25 0 1.96875 1.203125q0.71875 1.203125 0.71875 3.03125q0 2.203125 -0.671875 3.453125q-0.671875 1.25 -2.125 2.203125l-18.421875 12.390625q-3.65625 19.859375 -9.5625 31.234375q-5.890625 11.390625 -15.015625 11.390625q-4.890625 0 -7.96875 -3.03125q-3.078125 -3.03125 -3.078125 -7.921875q0 -4.515625 2.0625 -9.21875q2.078125 -4.703125 7.6875 -10.796875q5.609375 -6.09375 15.890625 -13.96875l0.28125 -2.203125q0.671875 -3.5625 1.546875 -10.171875q-1.921875 6.90625 -5.390625 10.515625q-3.453125 3.59375 -7.28125 3.59375q-4.328125 0 -7.0625 -3.984375q-2.734375 -3.984375 -2.734375 -9.9375q0 -7.203125 0.953125 -13.203133q0.96875 -6.0 3.171875 -12.71875q0.96875 -2.875 2.6875 -4.125q1.734375 -1.25 5.46875 -1.25q2.125 0 2.9375 0.671875q0.8125 0.671875 0.8125 2.015625q0 0.765625 -1.0625 5.1875q-0.953125 3.546875 -1.53125 6.421875q-0.765625 3.9375 -1.34375 7.5468826q-0.578125 3.59375 -0.578125 5.90625q0 3.640625 2.015625 3.640625q1.4375 0 3.59375 -2.875q2.171875 -2.890625 4.609375 -8.734383q2.453125 -5.859375 4.765625 -14.40625q0.765625 -2.875 2.34375 -4.125q1.59375 -1.25 4.75 -1.25q2.21875 0 3.078125 0.578125q0.859375 0.578125 0.859375 1.921875q0 2.390625 -2.5 16.5l-2.484375 15.468758q7.390625 -5.578125 14.390625 -10.1875q1.25 -0.765625 2.21875 -0.765625zm-42.046875 55.59375q2.390625 0 5.359375 -5.578125q2.984375 -5.5625 5.96875 -18.53125q-7.40625 6.25 -10.71875 11.375q-3.296875 5.140625 -3.296875 8.984375q0 1.625 0.609375 2.6875q0.625 1.0625 2.078125 1.0625zm49.631104 -33.890625q-6.25 0 -9.078125 -4.421875q-2.828125 -4.421875 -2.828125 -11.703125q0 -4.328125 1.09375 -11.093758q1.109375 -6.765625 2.84375 -12.625q0.859375 -3.078125 2.296875 -4.21875q1.4375 -1.15625 4.609375 -1.15625q4.890625 0 4.890625 3.265625q0 2.390625 -1.8125 11.125q-2.3125 10.562508 -2.3125 14.312508q0 2.875 0.765625 4.421875q0.765625 1.53125 2.59375 1.53125q1.734375 0 4.328125 -2.390625q2.59375 -2.40625 6.90625 -7.59375q1.15625 -1.34375 2.59375 -1.34375q1.25 0 1.96875 1.15625q0.71875 1.140625 0.71875 3.15625q0 3.84375 -1.828125 5.953125q-9.5 11.625 -17.75 11.625zm48.178467 -21.890625q1.25 0 1.96875 1.15625q0.734375 1.140625 0.734375 3.15625q0 3.84375 -1.828125 5.953125q-4.125 5.09375 -8.984375 8.359375q-4.84375 3.265625 -10.984375 3.265625q-8.453125 0 -12.53125 -7.671875q-4.078125 -7.6875 -4.078125 -19.890633q0 -11.703125 3.015625 -26.671875q3.03125 -14.984375 8.9375 -25.734375q5.90625 -10.75 14.0625 -10.75q4.609375 0 7.25 4.265625q2.640625 4.265625 2.640625 12.234375q0 11.4375 -6.34375 26.515625q-6.328125 15.0625 -17.1875 29.843758q0.6875 3.9375 2.21875 5.625q1.53125 1.671875 4.03125 1.671875q3.9375 0 6.90625 -2.25q2.984375 -2.265625 7.59375 -7.734375q1.140625 -1.34375 2.578125 -1.34375zm-11.796875 -59.328133q-2.21875 0 -5.0 7.96875q-2.78125 7.96875 -4.890625 19.78125q-2.109375 11.796875 -2.3125 22.640625q6.828125 -11.21875 10.859375 -22.5q4.03125 -11.28125 4.03125 -20.59375q0 -7.296875 -2.6875 -7.296875zm60.289062 59.328133q1.25 0 1.96875 1.15625q0.71875 1.140625 0.71875 3.15625q0 3.84375 -1.828125 5.953125q-3.9375 4.796875 -8.640625 8.21875q-4.703125 3.40625 -9.3125 3.40625q-7.296875 0 -11.140625 -8.546875q-4.03125 5.09375 -7.0625 6.828125q-3.015625 1.71875 -7.046875 1.71875q-5.859375 0 -9.65625 -4.359375q-3.78125 -4.375 -3.78125 -11.390625q0 -7.671875 3.265625 -14.250008q3.265625 -6.578125 8.96875 -10.75q5.71875 -4.1875 12.828125 -4.953125q1.8125 -18.625 6.953125 -31.8125q5.140625 -13.203125 13.484375 -13.203125q4.125 0 6.859375 3.75q2.75 3.734375 2.75 11.3125q0 10.75 -5.28125 25.15625q-5.28125 14.40625 -14.109375 29.562508q0.375 5.578125 1.671875 7.984375q1.296875 2.390625 3.3125 2.390625q2.59375 0 5.28125 -2.296875q2.6875 -2.3125 7.203125 -7.6875q1.15625 -1.34375 2.59375 -1.34375zm-11.328125 -59.421883q-1.828125 0 -3.65625 6.484375q-1.8125 6.46875 -3.109375 16.9375q-1.296875 10.46875 -1.875 21.890625q10.75 -23.421875 10.75 -37.640625q0 -3.640625 -0.625 -5.65625q-0.625 -2.015625 -1.484375 -2.015625zm-27.65625 71.60938q1.828125 0 3.640625 -1.484375q1.828125 -1.484375 4.625 -5.515625q-0.96875 -5.1875 -0.96875 -11.625008q0 -2.296875 0.1875 -7.484375q-5.265625 1.625 -8.78125 7.0625q-3.5 5.4218826 -3.5 12.046883q0 7.0 4.796875 7.0zm45.70569 9.703125q-6.25 0 -9.078125 -4.421875q-2.828125 -4.421875 -2.828125 -11.703125q0 -4.328125 1.09375 -11.093758q1.109375 -6.765625 2.84375 -12.625q0.859375 -3.078125 2.296875 -4.21875q1.4375 -1.15625 4.609375 -1.15625q4.890625 0 4.890625 3.265625q0 2.390625 -1.8125 11.125q-2.3125 10.562508 -2.3125 14.312508q0 2.875 0.765625 4.421875q0.765625 1.53125 2.59375 1.53125q1.734375 0 4.328125 -2.390625q2.59375 -2.40625 6.90625 -7.59375q1.15625 -1.34375 2.59375 -1.34375q1.25 0 1.96875 1.15625q0.71875 1.140625 0.71875 3.15625q0 3.84375 -1.828125 5.953125q-9.5 11.625 -17.75 11.625zm44.63159 -10.953125q2.109375 -0.09375 3.21875 1.5q1.109375 1.578125 1.109375 3.875q0 2.40625 -1.109375 4.234375q-1.109375 1.8125 -3.03125 1.8125q-3.453125 0 -6.484375 -0.09375q-3.015625 -0.09375 -5.3125 -0.1875q-8.84375 -0.390625 -12.484375 -0.390625q-1.25 0 -3.640625 0.875q-3.078125 0.953125 -4.234375 0.953125q-5.078125 0 -5.078125 -6.53125q0 -4.40625 3.15625 -10.015625q3.171875 -5.625 8.25 -10.906258q5.09375 -5.28125 10.578125 -8.828125l-13.546875 0.375q-2.109375 0.09375 -3.21875 -1.484375q-1.09375 -1.578125 -1.09375 -3.796875q0 -2.296875 1.09375 -4.0625q1.109375 -1.78125 3.03125 -1.78125q4.21875 0 10.46875 0.671875q1.046875 0.09375 4.546875 0.390625q3.515625 0.28125 6.484375 0.28125q0.96875 0 3.65625 -0.78125q0.46875 -0.09375 1.859375 -0.46875q1.40625 -0.390625 2.359375 -0.390625q1.53125 0 2.53125 1.34375q1.015625 1.34375 1.015625 4.125q0 3.078125 -1.484375 4.90625q-1.484375 1.8125 -4.46875 3.265625q-3.359375 1.53125 -7.875 5.28125q-4.5 3.7343826 -8.53125 8.296883q-4.03125 4.5625 -5.953125 8.59375l24.1875 -1.0625z" fill-rule="nonzero"/></g></svg>