<svg version="1.1" viewBox="0.0 0.0 960.0 720.0" fill="none" stroke="none" stroke-linecap="square" stroke-miterlimit="10" xmlns:xlink="http://www.w3.org/1999/xlink" xmlns="http://www.w3.org/2000/svg"><clipPath id="p.0"><path d="m0 0l960.0 0l0 720.0l-960.0 0l0 -720.0z" clip-rule="nonzero"/></clipPath><g clip-path="url(#p.0)"><path fill="#000000" fill-opacity="0.0" d="m0 0l960.0 0l0 720.0l-960.0 0z" fill-rule="evenodd"/><path fill="#000000" fill-opacity="0.0" d="m305.61942 72.874016l362.17325 0l0 83.748024l-362.17325 0z" fill-rule="evenodd"/><path fill="#efefef" d="m372.90378 119.21714q0.65625 0 1.03125 0.609375q0.390625 0.609375 0.390625 1.671875q0 1.96875 -0.96875 3.140625q-2.421875 2.9375 -4.90625 4.5312424q-2.484375 1.59375 -5.875 1.59375q-3.75 0 -6.140625 -2.203125q-2.375 -2.2031174 -4.453125 -6.8593674q-1.515625 -3.34375 -2.5 -4.984375q-0.984375 -1.65625 -1.953125 -2.328125q-0.96875 -0.6875 -2.4375 -0.84375l-0.546875 3.75q-1.0625 7.234375 -4.140625 10.4375q-3.0625 3.1874924 -8.421875 3.1874924q-3.5 0 -6.21875 -1.6875q-2.703125 -1.7031174 -3.765625 -4.3437424q-0.359375 -0.90625 -0.359375 -1.96875q0 -1.53125 0.703125 -2.640625q0.71875 -1.109375 1.828125 -1.109375q0.671875 0 1.125 0.328125q0.453125 0.328125 0.859375 1.140625q1.5625 2.9375 2.75 4.109375q1.203125 1.15625 2.96875 1.15625q2.03125 0 3.46875 -1.84375q1.453125 -1.859375 2.0625 -5.703125l0.703125 -4.8125l-0.8125 0q-1.15625 0 -1.828125 -0.65625q-0.65625 -0.65625 -0.65625 -1.828125q0 -1.3125 0.6875 -2.09375q0.6875 -0.796875 1.703125 -0.796875l1.671875 0q0.34375 -2.484375 0.5 -3.4375l1.5625 -11.40625q-1.3125 -0.140625 -2.46875 -0.140625q-4.3125 0 -6.546875 1.5q-2.21875 1.484375 -2.21875 4.265625q0 1.265625 0.265625 2.0625q0.28125 0.78125 0.75 1.734375q0.203125 0.40625 0.203125 0.921875q0 1.109375 -1.046875 1.953125q-1.03125 0.828125 -2.296875 0.828125q-1.625 0 -2.390625 -1.421875q-1.515625 -2.6875 -1.515625 -5.765625q0 -3.203125 1.75 -5.828125q1.75 -2.640625 5.296875 -4.234375q3.546875 -1.59375 8.75 -1.59375q2.28125 0 4.1875 0.25q1.90625 0.25 4.171875 0.96875q2.484375 0.75 2.484375 2.828125q0 2.796875 -2.375 2.796875l-1.984375 13.625q5.9375 -0.609375 9.65625 -5.09375q3.71875 -4.484375 6.203125 -12.1875q0.453125 -1.421875 1.546875 -2.171875q1.09375 -0.765625 2.765625 -0.765625q1.421875 0 2.203125 0.640625q0.78125 0.625 0.78125 1.796875q0 0.359375 -0.203125 1.15625q-2.53125 8.359375 -7.25 13.28125q-4.703125 4.90625 -10.28125 6.53125q1.9375 0.453125 3.171875 1.375q1.234375 0.90625 2.09375 2.25q0.875 1.34375 1.984375 3.71875q1.5625 3.34375 2.9375 4.734375q1.375 1.390625 3.1875 1.390625q1.625 0 3.09375 -1.078125q1.46875 -1.09375 3.703125 -3.734375q0.609375 -0.703125 1.359375 -0.703125zm2.5297546 11.546867q-3.140625 0 -5.015625 -2.28125q-1.875 -2.2812424 -1.875 -5.9687424q0 -4.0625 1.875 -7.671875q1.875 -3.625 4.984375 -5.828125q3.125 -2.203125 6.625 -2.203125q1.109375 0 1.484375 0.4375q0.390625 0.421875 0.640625 1.53125q1.0625 -0.203125 2.234375 -0.203125q2.484375 0 2.484375 1.78125q0 1.0625 -0.765625 5.0625q-1.171875 5.828125 -1.171875 8.109375q0 0.75 0.375 1.21875q0.390625 0.453125 1.0 0.453125q0.953125 0 2.328125 -1.234375q1.375 -1.25 3.703125 -4.046875q0.609375 -0.703125 1.359375 -0.703125q0.65625 0 1.03125 0.609375q0.390625 0.609375 0.390625 1.671875q0 2.03125 -0.96875 3.140625q-2.078125 2.578125 -4.40625 4.3593674q-2.328125 1.765625 -4.5 1.765625q-1.671875 0 -3.078125 -1.140625q-1.390625 -1.140625 -2.09375 -3.1093674q-2.625 4.2499924 -6.640625 4.2499924zm1.828125 -5.1093674q1.109375 0 2.125 -1.3125q1.015625 -1.328125 1.46875 -3.5l1.875 -9.328125q-2.125 0.046875 -3.921875 1.59375q-1.796875 1.546875 -2.859375 4.078125q-1.0625 2.53125 -1.0625 5.375q0 1.578125 0.625 2.34375q0.640625 0.75 1.75 0.75zm40.013885 -6.4375q0.671875 0 1.046875 0.609375q0.375 0.609375 0.375 1.671875q0 1.875 -0.953125 3.140625q-2.390625 3.09375 -5.90625 4.8749924q-3.515625 1.765625 -7.9375 1.765625q-3.4375 0 -5.96875 -1.03125q-2.53125 -1.046875 -3.875 -2.8437424q-1.34375 -1.796875 -1.34375 -4.03125q0 -3.34375 2.6875 -5.921875q2.6875 -2.59375 7.703125 -4.96875l-8.3125 0.203125q-1.109375 0.046875 -1.703125 -0.78125q-0.578125 -0.84375 -0.578125 -2.0q0 -1.21875 0.578125 -2.15625q0.59375 -0.9375 1.59375 -0.9375q2.34375 0 6.234375 0.34375q0.8125 0.0625 2.96875 0.21875q2.15625 0.140625 3.625 0.140625q0.5 0 1.921875 -0.40625q0.25 -0.046875 0.984375 -0.25q0.734375 -0.203125 1.25 -0.203125q0.796875 0 1.328125 0.71875q0.53125 0.703125 0.53125 2.171875q0 1.625 -0.765625 2.53125q-0.75 0.90625 -2.375 1.625q-4.609375 1.96875 -7.65625 4.234375q-3.03125 2.25 -3.03125 4.46875q0 1.421875 1.3125 2.34375q1.328125 0.90625 3.90625 0.90625q2.84375 0 5.75 -1.421875q2.921875 -1.421875 5.25 -4.3125q0.609375 -0.703125 1.359375 -0.703125zm3.4952087 11.546867q-3.28125 0 -4.78125 -2.328125q-1.5 -2.3281174 -1.5 -6.1718674q0 -2.28125 0.578125 -5.84375q0.59375 -3.578125 1.5 -6.671875q0.453125 -1.625 1.21875 -2.234375q0.765625 -0.609375 2.4375 -0.609375q2.578125 0 2.578125 1.71875q0 1.28125 -0.96875 5.890625q-1.203125 5.5625 -1.203125 7.546875q0 1.515625 0.40625 2.328125q0.40625 0.8125 1.359375 0.8125q0.90625 0 2.28125 -1.265625q1.375 -1.28125 3.640625 -4.015625q0.609375 -0.703125 1.375 -0.703125q0.65625 0 1.03125 0.609375q0.390625 0.609375 0.390625 1.671875q0 2.03125 -0.96875 3.140625q-5.015625 6.1249924 -9.375 6.1249924zm9.836456 0q-1.921875 0 -2.71875 -2.015625q-0.78125 -2.0312424 -0.78125 -6.4843674q0 -6.59375 1.875 -12.515625q0.453125 -1.46875 1.484375 -2.15625q1.046875 -0.6875 2.921875 -0.6875q1.015625 0 1.421875 0.265625q0.40625 0.25 0.40625 0.953125q0 0.8125 -0.765625 3.640625q-0.5 2.03125 -0.8125 3.53125q-0.296875 1.484375 -0.5 3.71875q1.359375 -3.953125 3.265625 -6.6875q1.90625 -2.734375 3.90625 -4.078125q2.0 -1.34375 3.765625 -1.34375q1.78125 0 2.515625 0.8125q0.734375 0.8125 0.734375 2.484375q0 1.625 -0.96875 5.875q-0.40625 1.828125 -0.5625 2.734375q1.671875 -4.25 3.71875 -6.9375q2.0625 -2.6875 4.03125 -3.828125q1.984375 -1.140625 3.65625 -1.140625q1.625 0 2.453125 0.84375q0.84375 0.828125 0.84375 2.453125q0 1.3125 -0.5625 4.96875q-0.515625 3.078125 -0.8125 5.84375q-0.296875 2.765625 -0.296875 6.15625q0 1.9218674 -0.796875 2.7656174q-0.78125 0.828125 -2.546875 0.828125q-1.671875 0 -2.4375 -0.859375q-0.765625 -0.859375 -0.765625 -2.5781174q0 -2.03125 0.71875 -6.6875q0.609375 -4.0625 0.609375 -5.171875q0 -0.8125 -0.5625 -0.8125q-0.65625 0 -1.875 1.703125q-1.21875 1.6875 -2.4375 4.484375q-1.203125 2.78125 -1.96875 5.875q-0.5625 2.4218674 -1.296875 3.2343674q-0.734375 0.8125 -2.34375 0.8125q-1.671875 0 -2.515625 -1.59375q-0.828125 -1.5937424 -0.828125 -3.8749924q0 -1.921875 0.5 -5.578125q0.40625 -3.234375 0.40625 -4.25q0 -0.8125 -0.5625 -0.8125q-0.75 0 -1.921875 1.828125q-1.15625 1.828125 -2.25 4.671875q-1.09375 2.828125 -1.75 5.5625q-0.5625 2.3749924 -1.296875 3.2187424q-0.734375 0.828125 -2.296875 0.828125zm59.67621 0q-3.5 0 -6.3125 -1.71875q-2.8125 -1.7187424 -4.4375 -4.9843674q-1.609375 -3.265625 -1.609375 -7.734375q0 -7.703125 3.28125 -14.25q3.296875 -6.5625 9.71875 -10.53125q6.4375 -3.984375 15.46875 -3.984375q2.328125 0 4.984375 0.359375q2.6562805 0.34375 4.8437805 1.0625q1.40625 0.390625 1.40625 2.015625q0 1.328125 -0.984375 2.5q-0.984375 1.15625 -2.296875 1.15625q-0.40625 0 -0.609375 -0.0625q-2.6406555 -0.59375 -4.5156555 -0.875q-1.875 -0.28125 -3.953125 -0.28125q-6.421875 0 -10.9375 3.125q-4.515625 3.109375 -6.75 8.234375q-2.21875 5.109375 -2.21875 11.03125q0 4.296875 1.6875 6.65625q1.703125 2.359375 4.4375 2.359375q3.09375 0 5.421875 -2.53125q2.328125 -2.53125 4.25 -8.203125q1.9375 -5.6875 3.8125 -15.40625q0.296875 -1.421875 1.203125 -1.921875q0.921875 -0.515625 2.4375 -0.515625q3.5937805 0 3.5937805 2.34375q0 0.390625 -0.140625 1.0q-1.3281555 4.921875 -2.4219055 10.875q-1.078125 5.953125 -1.078125 9.03125q0 2.75 0.8125 3.984375q0.8125 1.234375 2.484375 1.234375q1.6094055 0 3.0781555 -1.078125q1.46875 -1.09375 3.703125 -3.734375q0.609375 -0.703125 1.375 -0.703125q0.65625 0 1.03125 0.609375q0.375 0.609375 0.375 1.671875q0 1.96875 -0.953125 3.140625q-2.484375 2.984375 -4.875 4.5624924q-2.375 1.5625 -5.8125305 1.5625q-3.546875 0 -5.734375 -2.046875q-2.171875 -2.0468674 -2.734375 -5.7968674q-3.75 7.8437424 -11.03125 7.8437424zm56.315887 -11.546867q0.671875 0 1.046875 0.609375q0.375 0.609375 0.375 1.671875q0 2.03125 -0.953125 3.140625q-2.28125 2.78125 -4.609375 4.4531174q-2.328125 1.671875 -5.53125 1.671875q-3.890625 0 -6.28125 -2.21875q-2.375 -2.2343674 -2.375 -5.9374924q0 -1.96875 2.03125 -2.828125q2.21875 -0.96875 3.171875 -2.046875q0.96875 -1.09375 0.96875 -2.671875q0 -0.90625 -0.375 -1.359375q-0.375 -0.46875 -0.9375 -0.46875q-1.359375 0 -3.015625 1.984375q-1.640625 1.96875 -3.0625 5.09375q-1.421875 3.109375 -2.234375 6.40625q-0.546875 2.3749924 -1.28125 3.2187424q-0.734375 0.828125 -2.3125 0.828125q-1.5625 0 -2.296875 -1.140625q-0.734375 -1.140625 -1.0 -3.5156174q-0.25 -2.375 -0.25 -6.984375q0 -7.8125 1.59375 -16.265625q1.609375 -8.46875 4.71875 -14.203125q3.109375 -5.75 7.46875 -5.75q2.328125 0 3.765625 2.0q1.453125 2.0 1.453125 5.1875q0 5.109375 -2.984375 10.609375q-2.984375 5.5 -9.734375 12.84375q-0.140625 2.640625 -0.140625 5.421875q2.421875 -6.328125 5.5625 -9.1875q3.140625 -2.875 5.875 -2.875q2.53125 0 4.078125 1.734375q1.546875 1.71875 1.546875 4.25q0 2.78125 -1.421875 5.109375q-1.40625 2.328125 -4.859375 4.15625q0.203125 1.375 1.234375 2.21875q1.046875 0.828125 2.515625 0.828125q1.578125 0 3.046875 -1.21875q1.46875 -1.21875 3.84375 -4.0625q0.609375 -0.703125 1.359375 -0.703125zm-16.203125 -31.3125q-0.90625 0 -2.03125 2.609375q-1.109375 2.609375 -2.15625 7.046875q-1.03125 4.4375 -1.6875 9.65625q3.140625 -3.703125 5.1875 -8.0625q2.0625 -4.359375 2.0625 -7.90625q0 -1.609375 -0.359375 -2.46875q-0.359375 -0.875 -1.015625 -0.875zm39.469604 31.421875q0.65625 0 1.03125 0.640625q0.375 0.625 0.375 1.578125q0 1.171875 -0.359375 1.828125q-0.34375 0.65625 -1.109375 1.15625l-9.718811 6.5468674q-1.921875 10.484375 -5.046875 16.484375q-3.109375 6.0 -7.921875 6.0q-2.578125 0 -4.203125 -1.59375q-1.625 -1.59375 -1.625 -4.171875q0 -2.390625 1.078125 -4.875q1.09375 -2.484375 4.0625 -5.703125q2.96875 -3.203125 8.390625 -7.359375l0.140625 -1.171875q0.359375 -1.8749924 0.8125 -5.3593674q-1.015625 3.640625 -2.84375 5.5468674q-1.8125 1.890625 -3.84375 1.890625q-2.28125 0 -3.71875 -2.09375q-1.4375 -2.1093674 -1.4375 -5.2499924q0 -3.796875 0.5 -6.953125q0.5 -3.171875 1.671875 -6.71875q0.5 -1.515625 1.40625 -2.171875q0.921875 -0.671875 2.90625 -0.671875q1.109375 0 1.53125 0.359375q0.4375 0.359375 0.4375 1.0625q0 0.40625 -0.5625 2.734375q-0.5 1.875 -0.8125 3.390625q-0.390625 2.078125 -0.703125 3.984375q-0.296875 1.890625 -0.296875 3.109375q0 1.921875 1.0625 1.921875q0.75 0 1.890625 -1.515625q1.140625 -1.515625 2.4375 -4.609375q1.296875 -3.09375 2.5 -7.59375q0.40625 -1.515625 1.234375 -2.171875q0.84375 -0.671875 2.515686 -0.671875q1.171875 0 1.625 0.3125q0.453125 0.296875 0.453125 1.015625q0 1.265625 -1.3125 8.703125l-1.312561 8.15625q3.890686 -2.9375 7.593811 -5.375q0.65625 -0.390625 1.171875 -0.390625zm-22.187561 29.328117q1.265625 0 2.828125 -2.9375q1.578125 -2.9375 3.140625 -9.78125q-3.90625 3.296875 -5.65625 6.0q-1.734375 2.71875 -1.734375 4.734375q0 0.859375 0.328125 1.421875q0.328125 0.5625 1.09375 0.5625zm26.175842 -17.890625q-3.28125 0 -4.78125 -2.328125q-1.5 -2.3281174 -1.5 -6.1718674q0 -2.28125 0.578125 -5.84375q0.59375 -3.578125 1.5 -6.671875q0.453125 -1.625 1.21875 -2.234375q0.765625 -0.609375 2.4375 -0.609375q2.578125 0 2.578125 1.71875q0 1.28125 -0.96875 5.890625q-1.203125 5.5625 -1.203125 7.546875q0 1.515625 0.40625 2.328125q0.40625 0.8125 1.359375 0.8125q0.90625 0 2.28125 -1.265625q1.375 -1.28125 3.640625 -4.015625q0.609375 -0.703125 1.375 -0.703125q0.65625 0 1.03125 0.609375q0.390625 0.609375 0.390625 1.671875q0 2.03125 -0.96875 3.140625q-5.015625 6.1249924 -9.375 6.1249924zm25.430176 -11.546867q0.65625 0 1.03125 0.609375q0.390625 0.609375 0.390625 1.671875q0 2.03125 -0.953125 3.140625q-2.1875 2.6875 -4.75 4.4062424q-2.546875 1.71875 -5.796875 1.71875q-4.453125 0 -6.609375 -4.0468674q-2.15625 -4.0625 -2.15625 -10.484375q0 -6.1875 1.59375 -14.078125q1.609375 -7.90625 4.71875 -13.578125q3.109375 -5.671875 7.421875 -5.671875q2.4375 0 3.828125 2.25q1.390625 2.25 1.390625 6.453125q0 6.03125 -3.34375 13.984375q-3.34375 7.953125 -9.0625 15.75q0.34375 2.078125 1.15625 2.96875q0.8125 0.890625 2.125 0.890625q2.078125 0 3.640625 -1.1875q1.578125 -1.203125 4.015625 -4.09375q0.609375 -0.703125 1.359375 -0.703125zm-6.21875 -31.3125q-1.171875 0 -2.640625 4.21875q-1.46875 4.203125 -2.59375 10.4375q-1.109375 6.21875 -1.203125 11.953125q3.59375 -5.9375 5.71875 -11.890625q2.125 -5.953125 2.125 -10.859375q0 -3.859375 -1.40625 -3.859375zm31.8042 31.3125q0.65625 0 1.03125 0.609375q0.390625 0.609375 0.390625 1.671875q0 2.03125 -0.96875 3.140625q-2.078125 2.53125 -4.5625 4.3281174q-2.46875 1.796875 -4.90625 1.796875q-3.84375 0 -5.875 -4.4999924q-2.125 2.6718674 -3.71875 3.5937424q-1.59375 0.90625 -3.734375 0.90625q-3.078125 0 -5.09375 -2.296875q-2.0 -2.3124924 -2.0 -5.9999924q0 -4.0625 1.71875 -7.53125q1.734375 -3.46875 4.75 -5.671875q3.015625 -2.203125 6.765625 -2.609375q0.953125 -9.828125 3.65625 -16.78125q2.71875 -6.96875 7.125 -6.96875q2.1875 0 3.625 1.96875q1.4375 1.96875 1.4375 5.984375q0 5.671875 -2.78125 13.265625q-2.78125 7.59375 -7.453125 15.59375q0.203125 2.9375 0.890625 4.21875q0.6875 1.265625 1.75 1.265625q1.375 0 2.78125 -1.21875q1.421875 -1.21875 3.8125 -4.0625q0.59375 -0.703125 1.359375 -0.703125zm-5.96875 -31.359375q-0.96875 0 -1.9375 3.421875q-0.953125 3.421875 -1.640625 8.953125q-0.6875 5.515625 -0.984375 11.53125q5.671875 -12.359375 5.671875 -19.84375q0 -1.9375 -0.328125 -3.0q-0.328125 -1.0625 -0.78125 -1.0625zm-14.59375 37.796875q0.953125 0 1.921875 -0.78125q0.96875 -0.796875 2.4375 -2.921875q-0.515625 -2.734375 -0.515625 -6.125q0 -1.21875 0.109375 -3.953125q-2.796875 0.859375 -4.640625 3.71875q-1.84375 2.859375 -1.84375 6.359375q0 3.703125 2.53125 3.703125zm24.103638 5.1093674q-3.28125 0 -4.78125 -2.328125q-1.5 -2.3281174 -1.5 -6.1718674q0 -2.28125 0.578125 -5.84375q0.59375 -3.578125 1.5 -6.671875q0.453125 -1.625 1.21875 -2.234375q0.765625 -0.609375 2.4375 -0.609375q2.578125 0 2.578125 1.71875q0 1.28125 -0.96875 5.890625q-1.203125 5.5625 -1.203125 7.546875q0 1.515625 0.40625 2.328125q0.40625 0.8125 1.359375 0.8125q0.90625 0 2.28125 -1.265625q1.375 -1.28125 3.640625 -4.015625q0.609375 -0.703125 1.375 -0.703125q0.65625 0 1.03125 0.609375q0.390625 0.609375 0.390625 1.671875q0 2.03125 -0.96875 3.140625q-5.015625 6.1249924 -9.375 6.1249924zm23.555176 -5.7656174q1.125 -0.0625 1.703125 0.78125q0.578125 0.828125 0.578125 2.046875q0 1.2656174 -0.578125 2.2343674q-0.578125 0.953125 -1.59375 0.953125q-1.828125 0 -3.421875 -0.046875q-1.59375 -0.046875 -2.8125 -0.09375q-4.65625 -0.203125 -6.578125 -0.203125q-0.671875 0 -1.9375 0.453125q-1.609375 0.5 -2.21875 0.5q-2.6875 0 -2.6875 -3.4375q0 -2.3281174 1.671875 -5.2968674q1.671875 -2.96875 4.359375 -5.75q2.6875 -2.78125 5.5625 -4.65625l-7.140625 0.203125q-1.109375 0.046875 -1.703125 -0.78125q-0.578125 -0.84375 -0.578125 -2.0q0 -1.21875 0.578125 -2.15625q0.59375 -0.9375 1.609375 -0.9375q2.21875 0 5.515625 0.34375q0.5625 0.0625 2.40625 0.21875q1.84375 0.140625 3.421875 0.140625q0.5 0 1.921875 -0.40625q0.25 -0.046875 0.984375 -0.25q0.734375 -0.203125 1.25 -0.203125q0.8125 0 1.34375 0.71875q0.53125 0.703125 0.53125 2.171875q0 1.625 -0.796875 2.59375q-0.78125 0.953125 -2.34375 1.703125q-1.78125 0.8125 -4.15625 2.796875q-2.375 1.96875 -4.515625 4.375q-2.125 2.40625 -3.140625 4.53125l12.765625 -0.546875z" fill-rule="nonzero"/></g></svg>