<?xml version="1.0" standalone="no"?>
<!DOCTYPE svg PUBLIC "-//W3C//DTD SVG 20010904//EN"
 "http://www.w3.org/TR/2001/REC-SVG-20010904/DTD/svg10.dtd">
<svg version="1.0" xmlns="http://www.w3.org/2000/svg"
 width="310.000000pt" height="310.000000pt" viewBox="0 0 310.000000 310.000000"
 preserveAspectRatio="xMidYMid meet">
<metadata>
Created by potrace 1.16, written by Peter Selinger 2001-2019
</metadata>
<g transform="translate(0.000000,310.000000) scale(0.100000,-0.100000)"
fill="#000000" stroke="none">
<path d="M795 2736 c-76 -19 -125 -46 -176 -96 -82 -82 -101 -200 -48 -306 21
-42 29 -49 57 -52 19 -2 44 4 59 13 27 18 28 42 5 128 -30 114 63 197 221 197
69 0 71 -4 58 -111 -31 -269 -36 -289 -80 -289 -39 0 -61 -24 -61 -64 0 -38
15 -56 46 -56 34 0 37 -14 24 -103 -22 -145 -77 -227 -153 -227 -49 0 -86 28
-132 100 -50 78 -71 86 -105 43 -18 -23 -21 -37 -17 -76 5 -61 43 -109 117
-151 50 -28 63 -31 140 -31 188 0 274 92 316 338 9 51 21 95 27 99 15 9 60
-16 90 -52 14 -16 50 -81 81 -143 59 -122 116 -195 170 -221 49 -23 169 -21
223 4 24 10 65 40 93 66 l51 47 47 -46 c65 -63 120 -87 207 -87 39 0 86 5 106
10 44 12 109 67 150 126 32 46 49 56 49 27 0 -38 60 -122 100 -143 53 -27 168
-27 225 -1 54 26 139 103 159 145 20 42 21 90 2 105 -19 16 -40 4 -89 -49 -70
-76 -136 -99 -184 -65 -56 39 -55 165 3 440 48 227 49 238 29 255 -27 22 -121
19 -138 -5 -8 -10 -28 -82 -46 -159 -56 -252 -110 -396 -179 -476 -43 -51 -84
-70 -153 -70 -46 0 -55 4 -89 38 -66 66 -84 172 -55 323 28 148 78 243 173
330 119 109 286 144 495 104 85 -16 104 -12 131 27 24 33 20 75 -6 89 -71 38
-296 50 -435 24 -199 -37 -376 -173 -465 -355 -63 -130 -82 -208 -84 -360 l-2
-125 -47 -42 c-74 -67 -149 -70 -205 -7 -17 19 -50 74 -74 123 -44 86 -109
161 -141 161 -37 0 -10 32 52 62 72 34 185 134 233 203 73 107 137 265 126
310 -9 34 -63 51 -108 32 -42 -18 -53 -31 -73 -92 -41 -121 -121 -260 -186
-322 -43 -40 -123 -80 -177 -89 -42 -7 -42 -6 -42 24 0 17 4 53 9 79 5 26 15
90 22 141 11 84 15 95 41 113 39 28 40 90 3 115 -61 40 -280 57 -390 30z"/>
</g>
</svg>
